<mxfile host="app.diagrams.net" modified="2021-04-28T03:40:59.632Z" agent="5.0 (Macintosh; Intel Mac OS X 10_15_7) AppleWebKit/537.36 (KHTML, like Gecko) Chrome/90.0.4430.85 Safari/537.36" etag="v_d3yc5Lz_DftV7QBigY" version="14.6.6" type="github">
  <diagram name="Page-1" id="12e1b939-464a-85fe-373e-61e167be1490">
    <mxGraphModel dx="1985" dy="1074" grid="1" gridSize="10" guides="1" tooltips="1" connect="1" arrows="1" fold="1" page="1" pageScale="1.5" pageWidth="1169" pageHeight="826" background="#ffffff" math="0" shadow="0">
      <root>
        <mxCell id="0" />
        <mxCell id="1" parent="0" />
        <mxCell id="O_zKsr9jnUD6uPcMvla0-34" style="edgeStyle=orthogonalEdgeStyle;rounded=0;orthogonalLoop=1;jettySize=auto;html=1;" edge="1" parent="1" source="O_zKsr9jnUD6uPcMvla0-1" target="O_zKsr9jnUD6uPcMvla0-33">
          <mxGeometry relative="1" as="geometry" />
        </mxCell>
        <mxCell id="O_zKsr9jnUD6uPcMvla0-1" value="冷却、消泡" style="rounded=1;whiteSpace=wrap;html=1;fillColor=#dae8fc;strokeColor=#6c8ebf;dashed=1;" vertex="1" parent="1">
          <mxGeometry x="1050" y="167.5" width="120" height="60" as="geometry" />
        </mxCell>
        <mxCell id="O_zKsr9jnUD6uPcMvla0-9" style="edgeStyle=orthogonalEdgeStyle;rounded=0;orthogonalLoop=1;jettySize=auto;html=1;" edge="1" parent="1" source="O_zKsr9jnUD6uPcMvla0-2" target="O_zKsr9jnUD6uPcMvla0-3">
          <mxGeometry relative="1" as="geometry" />
        </mxCell>
        <mxCell id="O_zKsr9jnUD6uPcMvla0-2" value="自研胶水" style="rounded=1;whiteSpace=wrap;html=1;fillColor=#d5e8d4;strokeColor=#82b366;" vertex="1" parent="1">
          <mxGeometry x="370" y="80" width="120" height="60" as="geometry" />
        </mxCell>
        <mxCell id="O_zKsr9jnUD6uPcMvla0-11" style="edgeStyle=orthogonalEdgeStyle;rounded=0;orthogonalLoop=1;jettySize=auto;html=1;entryX=0;entryY=0.5;entryDx=0;entryDy=0;" edge="1" parent="1" source="O_zKsr9jnUD6uPcMvla0-3" target="O_zKsr9jnUD6uPcMvla0-1">
          <mxGeometry relative="1" as="geometry" />
        </mxCell>
        <mxCell id="O_zKsr9jnUD6uPcMvla0-3" value="" style="shape=image;verticalLabelPosition=bottom;labelBackgroundColor=#ffffff;verticalAlign=top;aspect=fixed;imageAspect=0;image=data:image/png,iVBORw0KGgoAAAANSUhEUgAAAQoAAAETCAYAAADOEkiaAAAgAElEQVR4Aezd9491z1Hg//0P+A0QGGMwYGObYJtkbKIBg00OJpqcMTnnnDOInGG/5LhfMuwCJoloEBmREVlkEQXc1euIt1XbunfmzsydmefzeFo6U6e7q6urq7urq6v73Pkfu7twJ4E7CdxJ4BwJ/I9z8u+y7yRwJ4E7CezuFMXdILiTwJ0EzpXAnaI4V0R3CHcSuJPAnaK4GwN3EriTwLkSuFMU54roDuFOAncSuFMUd2PgTgJ3EjhXAneK4lwR3SHcSeBOAneK4m4M3EngTgLnSuBOUZwrojuEOwncSeBkiuI//uM/dp7/+q//2p7//M//3HmKyyue2OVJK5QvvRBOdFYY3gpXvOIrXvHyj4WVW+Gx5cNby182Hr0Vkuk+uV62nn3l1Cmo59///d+3Pi9ev8trfJQGB37l/v7v/36LS/u3f/u3Z40N9OFEY5arbmnC2v7LxqOlzmPCoXriu/zzaIW3wovSOa+ei+afTFGsDdFQaQZFHQ82WAyEf/3Xf33WgAhfGe+F0sF9T3gr3Icr7VA4hF+7VnhROofoH6Jz0fRD9OO7/IvSPQ8f3Sa+Pv2Xf/mXLS6tvq//S9Pv//zP/7yND/jC3/zN3+y+4Au+YPfMZz5zS/+nf/qnZ42Dyiv3V3/1V9t4qk71z1A7rwrjlfyE2jnrmu+H6ruo/E9FZ/J2iveTKYqYWRtKUAl9du5MV0YAw5104M74Me910AqPKTtx4meFK0+H2j9p7Xuv3FXhPtrSan/5l62n8vtgC4CJ/I//+I+b8s8iIDfv4Xj/h3/4h93f/u3fbgsF6PmLv/iLTVH89E//9EbjT//0T3c///M/v/uRH/mR3Q/90A/tfvM3f3NjnaKgRKIXP7Wr+FXhpI82etpyUboXlf8h+helkzxOBU+uKGoQqNEz3juBF+AIoM7pqXw0wIs81bXCi9A4Cze64cz2lHYMrNxV4aG6DvF50foO0UdHf6qHEmApiOtHisMj2Fb8xE/8xO5jPuZjdu/0Tu+0e63Xeq3da77ma+7e8A3fcPfWb/3Wu9d93dfdPf7xj9+98Ru/8e4jP/Ijdx/3cR+3e7u3e7vdG7zBG+ye/OQn7570pCft3u/93m/3x3/8x5vVoq7qPcTbVdK1B+/ao65VjsfSXsudJ/dDdC9K57x6Lpp/UkWhkQYIwYIa5714eToArnyd3cBihoYrL6HN99KC8vY90V3hPtyz6FfPCqM7yxL+inde/KIddgj/UD21t/xD5c9Lj84+SBbog/qvurxLYwH8r//1/+/e9E3fdPfxH//xu+/+7u/ePeMZz9j98A//8O77v//7dz/5kz+55X/CJ3zCBlkNLJO//uu/3v3d3/3dRvM3fuM3du/93u+9e9rTnrb73d/93b0LSvWeAhqr+Gb9gLVlX/ulHaoz/PLPk3N4K7wonfPquWj+SRWFxlACJjxI2B6DRR4oviqKhFL52SnlHYIJcIXq2veseMUP0d9Ho3bUtsoSfu/Hwot22CH8Q/Wt7TtU/rz06KyQDPSXdO8evCQ3dG0b3v3d3333bd/2bc+qBs4MVu6v/uqv3v32b//2lmxyRhP9fBkf8REfsfvgD/7gLZ78J0+H5HDRdDTVO8firGd9P0Q/vPJnm/e9h7fCi9LZR/sqaSdTFBpmcEzhzsbW0AZQA6yBFS68OkfDpFcWVD7cScMKZDDJm3X0Xhlx9MWrx3uhukqr/D4IN7x4FZ9p0S39qnBfnaVdlfZZ5dUxZUD2HunBWV66hwL4si/7st1nf/Znb+WlkftcUNBlOXzxF3/xplTgcG6iKw+EL/23fuu3Nqvi137t1zY5S6vetQ9KvwxUb+XUoX5twUt8wZE3eajMqeFaT+PqpuCtKYqEb3ITvMHTxF07idDh1zHFwTpu7iWjN/F7Dz+caMn3zPzS9kH1GTzwGyhzoK4dqJ5TPLOu6ivtFPQP0VBHT/LQdu9Nev0HR1pyoQBsKb7xG79xE0n48OCoTzl4X/RFX7T7hV/4hQ1PugCnoMzv/M7vbFuYn/qpn9rKxhN4iPfLpOOzcmjjMUUhr6f6w70uuNaTTG4KnlRRaEwCnIImvBo68+cAk25QNHjgK1eY5eAoC2eWqZOkTV6qGy3vgo5HQ4hGdKXLF5/1zncWDPMYrvToVle8bBVcYktS+RWiL63gvbQV95Rx9UVPfcnCOxmkOMXjR5m//Mu/3H3Ih3zI7vM+7/N2v/d7v7cdfzrN+MVf/MXt+bmf+7ntdAP85E/+5N03fdM37X7lV35l9+u//utb/i/90i/tKAWQb4Il8VZv9VZb2spP8VPAxlC0tHeOh9nOcK4TrvXV/zcFT64oalCDJeGV3gADm4xw5NcR+xoPn/VhgnqPPtzeq0MamvtC9YQLr8mOLh56xA89KZN4iV6wdsfHjF/lHf1o1s7SrkL3vLKzrikndZMFpal/kkfyoSicarze673e7jVe4zV2b/Imb7KdYLz6q7/67rVf+7V3r/RKr7SdeLzaq73a7hGPeMR28vHyL//yu8c97nG7l3u5l9s98YlP3L3sy77sdvoB513f9V03HIpD0Fd4EE4ph9qxyqV0dZ2yvrWeNb7WtzX4Bv+cVFGsjZvxGkrQHkpCvhXCJRue7h/8wR/c8W7bn8oz2Ay+P//zP9/g7//+72/ecoMSDfE//MM/3P3v//1/dr/8y7+8syp5z1sePq86D/uP/diPbR72b/3Wb91w8ISOwaa+4vEorfd9ED6ctWxtLe+UsDobI9V9yjr20VKf9ORV35AdayJFkZJNpk4N3v/933/bVnz6p3/61n98Fi5Xfcu3fMvuUz7lU3b6w/bEsajtB2elx1HqV33VV+0+8RM/cbMgvH/f933fpnh+9Vd/dRMBfpJJcB//V01L3vXtrCvZXLWOs8pXbzjxc1PwZIoiwcW4BpXWu3gTzsAymL7wC79wGyQu1rzbu73b7lM/9VO3wfInf/In28T/pE/6pN2HfdiHbXvTH/iBH9jymbAGoIkv/+lPf/qON/xt3uZttv2rd8rHQHScJt15/Bu90Rvt3uu93mv3Pu/zPpuCwQ+FBcZbA70BGL8rDK+ylQ+v9Dr2VBBdtArJ9lT0D9GpfdpNSaQcipNjMks2IN8DRfF1X/d127bCPYjv+I7v2OK2FBSFo9LP//zP333ap33adjxKiXzlV37l1n8UvzHiApaLV+A7vMM7PGvrcV1yTr5gMvG+1hdeONcFD9Vb/dcNT6YozpsgGtqgYiUYbCa8SWyQGBwUhQHy5V/+5ds+9Wd+5mc2j/lXfMVX7L75m795O4N3lm5Afed3fud2m++jP/qjt4s79rYf+qEfunvHd3zH3Zd8yZdstK1UBunnfM7nbBd7mK32we/yLu+y+9Ef/dFNtvjCT/xRYC4HZbXo+AY+HHFtBSsjX1w4Tw7w5oPGvmfiXOU92tE4b0DBm0F5bRJ6pxTIjLJI0VYuHLB+Zh18/dd//e5//s//b/dHf/RHm2OTVWHi6xsOzM/8zM/c3vUjfwZ8fcyCcBqi3Hd913dtVuTbv/3b7372Z39246l2nQdnm67j/VD95OAp/zrqvgmaJ1MUhwSSgORPRWHwGSz2n9/wDd+wmZcf8AEfsG0/DBDWAivDBZ3P+qzP2laXb//2b9997dd+7XbURrFYaVgPbvBRJo7gKAuDjkXx4z/+45viQY+SMCiZtp/7uZ+7bXHwhA8DOj7FKQmTwLvHO5wUQriVB6UJlZFWevj7YHgr3Id7mbToVva8QQVvBuW1SXrv5EBBeLz3lK88Z6TJ3KkH685FK9tKJyD6jhIAbT8pBosEZSBN/Hu/93ufFbfFlOfUg89jVRTqro374GzTdbzvqzOZTd6uo+6boHkyRXGWoBKYAWdwtb/lN7AVsKJQCFZ7e1UDBi5H2Ed91EdtAwQNK8vXfM3XbIqAFWLlsfX4jM/4jG1rYQApSykYhALrgxVCKVESb/Zmb/Yseg32eDfgBXU3GfDqEV8nTHFlomFQzIEhfeaHd1Nw5Wdj5ow/8RuK8rUzWhPCF09pgBT8x37sx+5sFfWh69gsBX1j62FhYPW5lUm5OwVhMX7pl37pzmIgTT7F4EanvvuzP/uzTdE4+Xjbt33bHWtTqP54vKhca+dV4aF6k1X5V63ntsqfTFHoqH1Pggo2Aa3SBs0HfdAHbUdf9qksAAOMAoH3Pd/zPdvWwfbCKsR/YYB84Ad+4DbYDELbC98OcJRxevkegLXBx6EODrKnPvWpWxkKg+fcABUoAANbsFJRLj5Okl4+PuIdTGEop70FA0E83HVgFL9peIif+F4h/mZQXrukR2vC2iON9cBqoBhYhCwzFoTjUf1HAZAzpcAC1L8UOSc0JcLS058sP4qCJciqkKev4duu2nrcKYrZS9f/fnJFYSL1mEwNqgaaQTcnp8nLjLSSGFDMToMCjkFkO8IS8PGQbYcB+B7v8R7b6YWViHJw5Gb1McBYDCAlZMKjz8KwWlE0r/M6r7MNUnXgLUVg4BnILBarmNMXOLYctQHvs21NoCbLGp/dF84KJ858X/EuG4/3ys869r3Dm0H52hUtcf3jIQ9xSrktpKNLaR6KQh85sWAxUuCUASvBxNdXTjBYh7aMaOgHioTTEw6flXLGiJuZ00cRT8HaucLyVzjbepX3tb7i1Vf8KnXcZtmTKYoEkWAaKMVnvsElmIi2DjzZJrXVSNygUM7q7thUuolOMbAubE/keTi5KBjlrDa+K7AyddTKv2Hy9wGSwYoGmgY6PvM/GOxMWyscU9ngNqgdr+IpvCZHEI21nWun1v4VrnjFV7zLxs/jq/qC6plBee0Teic3skge+s8E71IVPHnKufdCAZj4FIYtBOtCnAXJcnD5ylbSwzcB36KQRUFR6GeWCAXu1EMfCcfKJTmscCNygj+H+Ki+8k9Q1a2QOJmiSCArTEAGjYllkFEK3g0mk91RZ6sT5WHCwomWexHSPO5UMHGbpGhYtaSpSxmDE02PdNBvHjjN8HTPQp096mMqiwvq+oM/+INtn21QG6yUi9WStaLeGdQrKB/fID7RxpuQPMLZEvf8Ce9YGL0VRjo68pv45U1YPigoBx8s1I/iFDMrkHz0Zf1MlvD0BcXuxINFp/8clVLClLc0d2AsBLaPFI73nJmUBQuDokCDUnFS5ncrBPVNmVe/uj3agXdw35NcVhhu6bW9+E3DQ/zE13XDa1cUGkCoNbSOFG/ApTik1fE6X37xyknvkb+WhXfso/x80EI7nikDPElj8vLc2wYxgZnFnLBWSJMCngBqrzLK46W86M5BthXa82fiHPOujn3PWnYfzkyDj2cwfotLg0tmgslLHiYwOSQ/+doPl6J2EkXZsvqUoSjEWX0c0a5so8H6k2dbwqKjJPJZOPWA4+tSPqlOPZKzOtWH1/o02cf3bGfv8vY9a/7W4KHo95W5zrRD/MTXdcOTKYpDQlobAE+jC1MA0sR18Ozk3uWtg0Bc/qx/0ohWsPpWOMvHI7gGFo8tDtOXU5SjzeroYpBBzGJhjeArmvEvPvko/xRwbU/xffUl53BWWBl8yTMZp0KmAE3U7rPIL8DXdhCdnJkmv5MtzkxKIEVhu8JKYEW09XC6Ra4sFcpZ3C1bSonCduqRRaEuvE3+4h/UBuGiMk4mlat9xW8aHuInvq4b3riimA1ahV3eFIo08XDLK614ZYNzsMz38leIvgDCR7cgTbwJIB2OCcKUpjQ4QP2egsc7B11bpMrGBzrea9MpYHJYobqqT955ddUubVMOpPhMRGVBvgXH1o5B5SuDdm1KPsrZ8tl6sBSU4WPga6A4nDKxItBjWVAalIhTK4ojRUERs0T4l2z9HIOnKPDDotunKGovfs5r95qfHEufY6G0m4SH+Imv64YnUxQXZfSQkNGZQikefnmgtOIXrX/FR0uonhkPV11zUpgkBqh076wNA5miaFVkaVhFTRgTL57RiVZtmHDyccz7LDvfq+esuia+d7gplyaiNL4epxCOnG0X4LAu4KQw4lWeCawMJcCBqRxrzNbNNoKi4X/wE3kc0E5AUhQUrm2HH7vp1IPCUa9TD4oCr+iz4uqHtS313SEYvyuMTumVL37T8BA/8XXd8NoVxSGBHmoYfEIxMCvbe+ni3uX3PulFI+FOGM0VzvK9w5mhuqIv3kQxMUwWwaClNKye7gFYGa2QtiomisGtrBAfk8faVt4xcC1ffPKqTnye9UyelA2XddBlN1sstLQ3Pwy80ipDDpyZLAGKgUXR1oPT0lE3JeJUyemHd9YGJWuboT7yY2nwUaBDUbAolMXfrDO51XbwvHBIttEoPzrFbxoe4ie+rhteu6I41ICLCjo6lVsFV3ow/OuC6jdIPd7VC5okYMFkYU24p2G1tDrad/vWxInBtDTQEFqdozsng/faGAyv+ITy9j34VE954m0xpKMhT30muwlsRecrkAcnGnDWR7ulcXJSALYTfBri2k8xcGaa/I695duGcBKzLiiLLAwnI7YeLnJRFE49KBd8qAOfyWy2/YH43riJ9+L105pe/nXDO0VxSQnXcStswsx0aQYyU9x9DN82+CCK0nBfgCnOp8HxB6egjEnapOy9yWHQqMeEbQCtcPIx3+ckjwZF0X5fHXDkmZzunrAkWBD4SRHAqc3xVT1o2RbYXnBOUhgmfD4KWw7KgxKlGGxrbEcck/JLeFgVtiGOpKVTEE49upmZbOJ1bf/9Ek+mtacxclPw1hTFZRuYoFbBlR68LP1jy1XPWRCPBrBJ5V0ozSRyn4PH3/7dZHB3wGrrRMEdDjjw14k4J3H5h/iQv++JpjxlxdtGmXzRBU1eSg2etqQoppKoDjje8e6dcvMzAdroer4tBMvKVsxkt8Xg12Fh8Dv49JxiIQu3bSlU7xQMRUHRUhQUhoCH+FCvOh/IT23YGjf8dVO+2nfT4U5RXFLihwbjJAfHBGzVKy5NxwflsyZYGj6kYn7b05tQnKH8GiYe/Oo1OZrQDa7yJmyArRCf4fWOZrTAgm2SbQAlUZlwa0P0yy9ua+ULX5aDDwApQlsIt2kdkX74h3/41lZ3LCgI2w6fpftmB3RL05ZHuXd+53feZOK3RXJmzvqnfOLjgQiTe/2iDcmz9kycm3i/dkVRw64KE0Z0VsGVHgz/pqH6C97xaQCbWPORZuIxzaWL91AKHKEmKEuDM5TicJOR0qBUZlBH7V5hclqh8vFXGfWHlyKA5/jShE0xxWe4wehEG562sCQe+9jHbh/n+b1L/+zHT+NxSj7lKU/Zvfmbv/l2kuEfAr3+67/+9mNDfmSIQniLt3iL7TsfcY+fyXvlV37lZ/1vj9qAB/XFwwMVkp12NFa0S9gn4y3jhv7cmqJosB0Lk0cDYBVc6cHwbxrG16wXT4K2yo9HUDxzvskprcBvYBtislpVHRm6scjyYLL7FgbdGVb68TQhHOVSUmCKILzoqJvZL8CpHZPfcCcfeIfrpIMyYFXYQth+8DmA4h73UTg3Pb4dcR0c1HYOVPicnv6TGBlUd+3Aczw8kKF2GA8UrMd7/THbOOV8E+83pihqjE5MGAaRZwpD3GBs0CY0sEEtzztaYOkJEpQG9jR4iq8w/s6ClcFj79E9q5y88PZBtKRPvLUObTZwTCBbFNsTDkLHjPbwrpPbv5PTDGgnXzT5IdRFPvwHaEqXFpw8osUfwKJAS1h5m/i9o6+uythC8S3wOSjv0abw0fXNB59NobLiLq85XnUCkkNVvvLqio600qUVyr9XYDKMHzxLE0922ilNONSu2nfd8EYVBSE0QDTc/rWvMovnxDOI4BIavCaAuBXIaiWIe+CikeDFZ1qCLD/BB8s/CyoLP7qzvrPKyaveY2H8176gdO/kQ2lQEE5N3HTkcLTacoZajZOR+uE3cZX3bvKlKJLD2kZxisKJBRyh9p/VFjjqrN9ssZx2+D0Qv0Hih3NNfP4K1oqjUT+FKK4N/DMsqKwo/gu/4s06qT3Vv/K+r1/CvWkYbytcZVg+/pJdc0DazBe/6XDtiqIGaSgBGDitCG7d8XrzdBv0vOsGinfCMLiYmxxp9usGNhPV6maCTAGi7ZlCVKd4D156n3hr+j6c0uqwYOm18xAM71hYe1aoPBk2AdVnQNmC8F/wY7A0KA4nDa5JW6n5NZQVlMV/UPq+QQlH4Dh034GCEaQn67Pak4yUwYPfL/XbIfrYxNeP6FIc/kGxn/B369I/MKY0+spUW4wTaY5RtRUvtQdUV7D38tXv/Taetf9mfPLpvTzv85FevDZsHXGDf25FURigJryB4x/X+rrQfQID5lVe5VW2s3P3CuzBHa0ZODzgVhqfevsRG8drczVchTllWCdIOyTwOmCF0Znp0QBLD+8QDO9Y2KBZYW0gQ5Nltg1t+CwJv6vB3LctIStOUUrDnQg3Q5WfIb6iV71wWCjuUaALL5zK7IPxKc+HXH5A6H3f9303J231oiO4xepXyygDys3pCD+MEB8g3v14MuuGlTmD/HhDN57CKX7TcPK/vk8+k2ntiM/SwYlfu24K3pii0PAabYCnKHi53cpzhGYPSwn4lSqricHuCM0g87PuViHwFV/xFTd8K4uVsAkTfWme9nhr3fB1SIInbO/7njpsheGWfl6HhXcsnIOquibUhrXda1rtclGKRWbyURy2AK6T+wHc1RmabEAyVCeLwkRm4eFfmvzz2qI8JeEmpdMOF6z4V1g+HvXjjRXkRMNWxBYEPj7xZgvlNicrk0LBi3947F8uiOMFH1lHySje6pfiNw3jZ4Vz/OFJ/ppW+iwb/7XrpuC1K4q1YcUNEiuH4zHn46wLJqlf1GZFsB5YDL7MZKL60Mpembf/Ld/yLbf/BUGwbWOia3AqZ1AagAaiNPnwDSiPtCbF7Ij1PborDK/08zosvGMhXhs46qpc9QbVK09ce0pPNvIK0rqv4TITK8PNRzciyZnyTgHATW7y9JWJO+l7j68VqpMFwhfx4Ac/ePvPX45EHXn672D6nfX4qq/6qpvf4mEPe9iGB77oi77odkzKiqGg3vM933NTDv5/CyXBqoBHqdiO4gOv8Tb5qu0rf7cdr2/jA8/SBGm1xbsw46VtGTf059oVRe3QuAafTtXBJrIzdZdrDAADwmBylGaf7S4Bi4LVYXvCp2FPa8UxeNFD10OQBjnaFAFrxKrkgyLmrCM+KxAcQdkm1hxk0azjxD1X7aj4XGF0TwFXPsW1TTs95YMUrIlve2dLwg9g/8+So5DdGk1W5Oa3JDieC/Gb7NGMfm10qmKiP+QhD9k9/OEP3z3hCU/Y7kB4f7EXe7HdYx7zmE1R+NeBL/3SL7174Rd+4Q3XPQn+Cv4M1iUr0+P3Tp/85Cdv29WXeqmX2qxKddSfeKruY2FlalftOVS+dt80PMRPfF83vBVFYSIbfH5D0eCxd2VNcFrafliFeLudnxu4BgurwpGgCc+i8PWgoMMapE2IlAXohIQ1grZrwkxuCoiimuXWAYN2g2YOijrsoh1TuRVO2tfxnkxWSDa1H6QEHE2yLmzx3JRk1dk6cBxTFF30is/aIh6t8sT5QliK/scoBc9CQFdfu5FpG6lfnXq4fWmRcKHKVlN/sRiUk6d+R6PFXc5CSzuErMR4Ohbid8XdlxZO7btpWP0rvOg4vCz+tSsKDRNAwjVgda4VjUXBenC8ZyAYIH5h237V6sZTzpLwOwa2HL4NcG/A9sReVYgemk0Gg1R9oLRWTwqCM9QxohXUOwcZpQFPqMzaIfE/B8jE2Qr/dztn+m2/T37nO3mZXNotPT7JikLwZSulYXtiguYT0E5lyalyoHhp4vWHLQvrgGXh19D1HeWhnykJC4YtCme1fwZlK8JipKQE1qDTDtsO6d7hosmnYZuJ93iqHcfCyfvk/9jyt43XuLtueCOKYgpTZzQpdTIrwWSlBByF2jJQIN7dxjO5ObSsTgYw68AJiTTBAGlQoltny2sQqF+QZ3JwjjmS7StGg1FcfQatoEy00JnPTK9tW6F7UFHE1wprn7Ykn9KKk6ftCaVscnIoCpUhE7jJOblIU1a/cFJbBFhyrAhbTMfgFgIOTv1LaXNQUwSUiIXBVoOi4r9iOfgGxLbD/QpWJX5YKMaQoL74Uf+xjzLxmrK5DJ1j6zs13tb4G/hzY4pCWwipjilu4krTSSZp0MqmAz0CHI90AxIeet57wqmemV4ZdaizPFsTE6EvGjn5eORZGQJcj/rwUrmgOuv8yWe8BMNZ4VbJLfyZMoonbWrS4Ns7SLGa7Fb/2Ub4k4547SVnk9h3HmQqUMh8RgJalIBFwf+CpSjgUiS2HRyarBHpFgc3Om1BlVMHy5KiyEdRn9aWY2HtrJ9r86HyG/O38Oe2+blRRUG+GjwHVANTR9VpoInpafDC65GWojgkwGhVV2VBaSmMeKIY3PrzrQFfhg+xOPUcCRrw+KtstIvHA1ry9j3hrPC6x9xaX/HqjdfStUlbxWsPXxG/glMRQd4s551Mk3VxVqAtC8uBH4IPwsM3JZ3vwqmU+x5PfOITt+2IrSbLgiPT9oeycJvTVuP5n//5twtZvhmxPeXLahyoO95qyzFQOTQsQJ7G3KGyWyW38Oe2+bl2RdGAWmEDy8D06CCPQTrfxWda+OAcmCv9Q/HKVWdx+DpD3awMK52TF6cuVjRKxEmAfEHdTajKoSE9mnWuePQbY/JKC29CeTO/cpeF0Z50veO3vORZG9SFd/KgKFgW4cqbZUufkJL1ObkvQPkjOCUdfdtaSHcRDA46vo512uEolaPSVlBwjM65yqKxBeEAtQ3xcRh6FP6ss/et8BF/1I2GhQIvlAW5XHeIz/qj+kpfYfm3BW9NUSSIBqsOO+sxYJuA4SXki8DKrnDlh0IwcCgISoNTj6XBqWpfTWkU8AW/bVH8qANdQVrv4t5Lq+4Jo1FadV0WRmfS9UWYWOUAACAASURBVB6P8r2Xpk0CyHfjtCG/EFwBbnT3QTKiEFgIHMgmudu3Trk4M01+2wwKg0Lm2HZMylKQ5uf7KQWKAuTXoHCchLnq7YYmZY1HvIDxsTF4xJ/ZXuWTwRFFr4QSn+o/T45wbztcu6JIICvU8NIS1lkCC6cy4KQx0y/zHq3qAQ0aj32wQc/pSlFwvhmw9t4USQoCzAJSzsBrENe2jemhKGZ9+95rS+UuC6NTHeLe8Vme9/KbdNJsObTXZ+Hh4gNu8RUqR3m6EerI01bBds6P5XJgc1TyOzjdcOrl1qhtBkVCMbPi+CEoBUqEUqEsWCSv8AqvsN3LQFsdeE1hxMexcqp/wtcmadcdVtmRV099sOLUtgmvm8/o35qi0NgEkoDAKYT5PoUW8+DEOeZ9lp3vyk56eFGnAZhnXdzAdBLgzoEBz8roHwA5Fch0RQ+NBmL8V6d8aec9talyl4XRqb7qnzL3Xjy+xSlJTki+CiGcaO6DcJIdBev/hfrHPe5GUBgsDH4LkKXgMp3jU1YFmdr2+fbD0SyoHFz/tNrFK/dokrU24XfydayckscKjy1/WTz1Tbnh3dgCPfEzcfa9X7b+i5a7dkVxiCGNThgJZwqovBUmrEN0L5se3cmXusXrwCwHg7KVzN72Gc94xmYqG+COAX3PkDe+stGKv+qZbZ/vtTu+KndZGJ1J17s6y6t+ce/h+gCLA9GWS5AnVG4fbOJGhzXCiemuhJMNx6buVpj4Tj08fBkv8RIvseU74XjSk560OTL5LHxi/uhHP3qzJjiZqxP92S+lbwwe+acy4E0Fsq0+kLyyipJdOPLrixXeFL+3pihmAwmiZ6bPdwOiQZewlDl1iA9QfTqtjuv0Q7qAD4oArjwefHcEWBhWTdsUNx738SlN+dq1wtnGfeUv2m40qhPt3tVbnnd5tU27xflqODNd9xbCi07lg9LJBeQoLM4Kc6muq+DyXJpy09aNXArBdyBZH6wL1oOtiGCrwTfBckMzmaETr/GwFTjiD/wZLlp+lr3Ie3JXRp3kpR1gY04b48f7vucidV4F99YURQJYYcKQXlhxjolX9qowflYY3clnaawMF8hcDOMEtddmftuyzGBAWA0b5KCB0gRAu3p7n/WV1qATP8WDx+ioX3ucMPi+ZubBKY6H2qFMA94qKY8iNdFtPzpmNeF968Pv4I4FZcTCsMXIN8EfwVITKGE3MzlV1YVu9Xj3xPdW4Br+RH+Fs5+Si+q9y4s/7+VHQ572eIyH2abKrk2p7Jp+XfF7TlEQQIIjJCGhXASeSmB42Pccog8Xnzrb46Ypy8Lg93CAuh9g4oRrgJy3miSHtd7ktY9HaYfCWbJUJt5AisJJRNfmZ13hNhGiS0HMlV6+27a2HRzAgglPMbAcbDtsL3zs5QamexMsDIqCghBcubdFcVyLHj4aK2RY3eB1hVnHfE8mpVW/eHzideb3Lj9F0faj9kV30oumvJsK95yi0PCpWQkjgV4EnkqAh+o8RL8Olt/A8G6f704AK8NVZqcIfBschPK0mWKZCqNBEg/o7QvlnwIm79ohTlHYInS3QT0rb9Udf8ob9B6rpHxWAh+F0w23MG1DWBGOS52KOBp9kRd5ke3rUIrDRa2nPvWpG57j2b4c5e8gLzwI5KaOeFfXdYXaucJVHrP+8uJPXuXLIy9P7ZptmO/RrXzx64Z3iuIcCdchKzxUrMEQnANAGXEXl6yujgD9aI/tie8XmOIGSnjqbCBJi6b0Gdb4zDv0vrZnjeMDr+p0w9JE9UtXQnzM97W8yQsvOqwpP8/vqNMWhJXgSNQRKSvL43QDjhMPSpQl5kTE8alP4eHzUThC7ag2HtQ3edgYvYY/s475rq3JRfoM4uWXPtPkNU6iER640pt5N/V+zykKQjG4PAlN2kWfmxLgWk+8N8kaBPjvfU4iSsMVZpeLKA1XyG1XWBbw16cBhV4h2iuu+KFwljyViX/veHG5iXITqiecaEnXfu2r/6z0vqN58Rd/8e13MSkcpx+sKncjbGm8u3XpEpbfHvHObyGfJeObDqckrA+K4vme7/m2LQhLJ37wIsTLFrmGP9FfYTIpfVZdGlgIfx+ceN7D2UcnetcN7zlFMYVS46eAjn2v7E1D/ONRAGd7iptIBrbJVDChKAgrq6NIK7C7AvbxmdWVqXy0pUvb96S44isah+QYP+GL2z5MRYGGtOlnga8uvEpvy8FK8t2Gya89XbACOTBZC5y9rIWuZlOY0lzrdoLkK1+4fqMEPiXic/S2QrUpnpN/bTklPCQ3dZ9Vf+XiJfwVasukI+6pb2d/wrupcFJFsQpDI0o7BDW2xhPGIbzSDwmm/FXwpa/lSg+/Dile/lrusvHogQJYXWDpJpjP6Z2amExdNGL298MxyitDXvhW1rtJmizRcZej+xxgv1zlPUdj7an+eBH3iMPlU2nroU5p6lOvOpOfeI98d0oceXJCOjnhj2BReCgPVgOfBYvBz+Q94hGP2D4W8/EY68I3HfwUoGNTH5OxMtypoDgEbcVrsqgtte1ehFO+ZJz8kqW00smT9WQLWB/fdJtOpijWhtdZpR+CCYOACOQQXumHBFR+Ag6WvpYrPbw6qnj5a7nLxqO3wuqr/iB5mNDuZlAYtibuZtiauPhEVsJaXro0dNAQ3H/wO5MuMFE8Vvx1wOErepNHtCgFtyj90pUgXz2eBvbkW5oHHt+CI1A3O32/4Tc6XeN2E5Ol4Co3yC9hi+FX2b3L91OGLAlbF9aFstJYXe5XsLyqB194iPeN0Xv4T3yu/ac9pc1+pAyTt/SbDidTFLNRGjs7LaHsgwmlgbYPR1p45a+CKj28YOnn4Vf/eeVWOsfG4+MQrN74MCgEPgw/FGyyW51NIJOdSe5eg99nMOln+XhyscmqbaI2SZ0sOJ6Ery4hnrxLLw6KUxQ+zFKftHisn2cZ78XR89EXi0HavoBeQftYLtNyKm+FlAunZndT4gucNNdy90o8PldItslPXrJe8YrfVHuuTVE0iGrQIdjAAgnlPLyZP4VU+qQ3BT5xva/4dUjly1/LXTYevUOwesF4oSx8Z2El9SHaVB62EZQFpUF5mGR93UlxuHOQuc5Z6jjSvh4+E9YKpZ5kkayC8SmOngnPxyBduVa3VsDwQWXc5vRu4nukeZQNJks0BMoQf9rBmkJjKo1owHVV3rch/rNcQX58lHavwvhcIfnMtGRV28u76XadTFFogMbo9J610TVyH1wFseI0wODNvARWWnSCpYcXLD089PfVEf5VYfWtEN3S4iXY3tsP3NqXM9ndu7DCV8YxoSNGKz7z3pGr/b6fwneBidnuyNGlpnwM+Re0t/rViWYw+uLwKAl+hU4+KI/VHJ5lvKuHguKYpVjQUc74sP1BkxLx4ZfHZSwWj9uXlAAfhevdbmZSHupTHi2OXzgUZPWi3/tV++u6y8cnOMM++dcHYPmzzE28n0xRxGyN0mk1agrlsu/oRXPSrd7oyptP6eEFSw/3PPqVuyysvhVGr/T4AaU1wVgFfrHcT9tTBO4Z8Dv4ERiOrn77gTOQ5eA3JSkLNxw5/Vq152RTh6Cetd74SS7i/An8CCZ4FkUTF/36B4Rv2+TmJR+LoAzlYUvk5EJb3MR03OmXrRyTUg6sCgqO4/IlX/Ilt/8BwnfhwlrKiSXhwzE+ELyrE/343iq8h/8c4rN+j3V49VNp4KHyE+eU7ydTFDHegJsDrLwJDwlkLZ91EmwQojUFNmmf8v2Uwt5H6xCvDQ75fjjGyvy4xz1um2AmU+8mizz3C/zCtctMHJ/+b4atByuAQ9C1cZNMQNsErw+Sqbh3Ib6kKWeC6wPfrPjqk+kvLYUhr6CswBfCP+HiFDo9LAzWDgXGh+JUw3aIleBCVv8ukE/Ev5N85jOfuf3orh/etR0R8ORDMo5PPOOjdlT/hnjkn9ob+hov/dkV3nOKog5qUOl8T4pCejg6rffrgtc9MA7xXbvVb8JZXZng7hp034ACscI/9KEP3Y4enYi4Fs15aZsiWIX5N1geys/fAa1ukyy5krN39YPiFEJbBhPUqYt6XUfnS2iSznLqtk3xT5382wV5yrJ83KtwYsFysNXwabk2OVmh3Cg6zko4z/M8z7Px7QtS7WJJpLS0iaLJqsFzbdoaf4E/a7k1fgFS9yXqyRSFgbDvSeArhCut4F3aGioX7eLhFb8qjN5Nw9q1wiYq6FfB3SFwH4ED04QSZ5b7JWunIvb6voVwL8FJAHnwA5jEHk5BF5RcZmLmu9DkH0FnCSQ/fHhXr0fZlARosgtWfQrIZO7XuadCgcO6YVH4iAtddTnuZQW5oemXtv1OpjsW2uMjsEc96lGbT8WdClaS7Zb/IMaH4QMxR8SUA+viaU972vY1KmWFt9oAXiTAT/6Vi1bxZ3d4zyuKOqgBvHZg8avC6rlp2ADdB01UNxspAxaFiWMl9z8vbD2Y7lZazkoTy3tyMHGa7GDBpGKhuJdgFXdsysrw6beJLsQLWiZ3FgMl0Ts8dbAqrOysDPnwlRNseVywsl3Ag3S+Fr+hSaE98pGP3JQGy8LDR8GioMTwxA+jvc/5nM+5WRkuYfU/ZSkNv8Hpw7F+wh9vtX9j4Mg/tReM98vQObK6ByTayRRFg3IVegJf4ewUkpNfmvc1VP5QevmXhSvdm4ont33QwDd5OS9NLKu3f87LF0F5mFjMdqszBYCGycuSMGG9e5rs6JWmfawCE5JfwErtGjUfBCekQJazrHd9FK8UA0uFwjKh3SZFXzmB9YL3ymkLa6htFIuCr0LbOF8pO/+PlOPSaYcvSv3epv9dihbHqB+/odQ4aW1hKEzxlFj9vzFwxB/4Z43ZI0g8W6Bcm6Koww7BlEJSPtRh5R+Ch+hfNP0Q/etOb9KtcMqDZ5+CYFGwGqzUVlSOPseijhW7eDTlSnmkNJrwoLpAk0ugQGwPbE04Gk1Kpw62PCZ++PGonCfayru1aSL7HVH1SmNpsAJ8+EU5UGwmto+/3P2wzdAGSo8vg3KgANy69O5Ux8kNRUEZ+WfWnKjoa7NbmvDaQmlT/X5svyXn2lb54LF07ne8kymKqZXnewI/Fuow5WdQthCd6ii+wokf7oThh3fdUH0C2MTDjwnXIG01FhecBFjprbD25ZyV9uZ8E/b+zHVHlvb3fBSUhb08HKssOtFPUZjA0vGRPCZvLAT3NigKH4LZWjD3HWkqKyjHOkCbVUJhSOO0pGg4WeGyEvzncpPZVse2o69H4dhiUAr+G5h6fAvCitBW+LYhz/Ecz7Gd9ODLKQcnJ35taSgP1ogPxabi25gct0zFZ3vxmsy9yyN7WxhtEpIRCCcacD3nhfCUrY5jyp1H97by71tFoXPmYKizb6vjGix1tEEjzQA30QxU74LB6tekrMImh0tUjgGtzhSBbx2Y6VZl2xGTx2RjxvNXWIWlo9uqTxZNpga/+pNR+fFkopvMlBM/hstctihOMqzoeIQL4t1E1qbqoKjw7r+BccAKlAvF1y1TvhLt0U58smBYM94FlhMHLmsFf7Y3yqsHP45+fXrO1xI/ytWuJibokd5Tu6VrK+VIrrZd0uSHG9S2aG0MHvgTTuXA0g4UueeTT6YoEsRVYR00JYdmIfp1QvEV6lQDwOMdXThrueheN1S3EJ9NKNBEKzgVYGLzPVhhTRYmuMfWAP+CScKE98MuLlhZmd2nQIuS8W/44IuzTEzS5JCMkwUozbMvUAxuQLpKTgGxXmwxHFV2ryE5m+TeOWGdSrhU5Zet0MYDxeCHetQJL6vClXNtsQVhIbh7QQ6so3hTzg1V5VggTk8oT7JAT1uDFEcylzb7Hj2yQEeeuGNkbXPTtfrKg5fs6r9VTpN+5dDx7jlUbqVzKF75FR7CP3X6faso6iydPJ9TddxlOkInz8Hj3YAWTCKD/+lPf/q2rbDdsH+nIEygfBDwPVY++3m+CtaFrQjFQbHIp2TcqTCRTfQm0ax/DuAGoPyJY4KEB7IcrPD8AxyTrAVbExYEXA9atiomvRMax6TqZ9rzR7jPAU/wfYfr5S6IOd51EqKMdjkWZU2hp25bDfLRHr+Q5dTDFsktT/TjnSzFlRMm/3DU3ZjYEP779ztteSg4QX5yqH5x79GtLBiOujzxUvxQuUnjrPfKr/CsMqfMO5miOMTU2rDz4nXOpKdMofJrB5Q+IZw5KLyv5aJ7ExBv6i9oq2A14wi0bTCJrNxuX/qWwbcd8PBu0qNhdXf3gDKxLXDc6OISpeKf/bJKnA5wHLpu7Yp3Azf5oucpPblIaxKVR/GYnPEPwjOpKAlbEpMM37YTJiketYefwRZJoEz4U4qrR6Dc3O1wasL34BYpen6xm4I08fFnG8SJSQ6sJac/bm1qv29Bak/8KzN5FtcmeNoETxvcAKWkfWPCWUoRdrEruaCjLOjZF8qrzITl7Ss308Jb4aQ132fZ63y/bxWFwdCjgwmX8BNyHXGdwl1pq7Ng8PMBdBvR6YUJ5Hq0VZfjr2BAa4sJCPp9TXt3k9ENTMqhf/pr+8HS4EDk6HPcaVI0yNHEh/p75mpMPupIXk0sZaSLozdXbNsNyol1YZXng+BDoOi0hTJRnjVCwTmGFarH9oPVRKH5SpW1xFfB8ak+j+B0w8kPRcJicVNTeymU/otZfNeOyiovTVy92qA+JzPosGAc1/KpkB2lQYHjWxllBXHPeSE85TzFjy0XfjA6KzyP3qnyT64o1oYVX2ENLv28BoVXOZ3nKX2F8Opg7w3y8M6r77rzHUfaKhj49uf27ganiWKVSzngPZ5rjwlOoZiMlI0V1QmIrQaz/QVe4AU22o4lXUhyGQoduL405RC0LWDFUDDKuTZtsqtL3YLJJE52FIP05JqyEC/It7KzDPgXWDl+LMf2wekIS8Ck1l5xWwlbJPchKDf8eNcWeL4BoXQcD6ufzDhIbTsoJxYLZcRPwYIS8LPvqR0gHsnblsevflMUT3nKU7ZboCk6ioPsbLF8dVs7G0eNvdp+UYiPfU900Cdj9Qm1qTLh3RS8bxUFARIqgfcQ9m0JOn7qWKujo0ATlMPOZGUp4NWEowxA/Bbi3+AxGTkL3V50lOiqs/29CWcVd/fAZDPY1cPhR6GYVE4ZWDAsAE5JqzfFAx8tA1RdJrO6OENTFOIevIWHR2nJWbovRk1q/KBNObEaTH6Ki8OSw5ZC4V+h4PBpu2RF1wb+CFswpzgsI/z4GX+KR322WqwTVoETC6EJtQ/iWTpF80Iv9EKbjPhB/PCv+PM+7/Nu9dsuefDOGcuBKtR27URn9s2GcIE/jcMVqkMaXlk8c8tXnVep9wIs/j+o972iMGgNcp1LwA2gOuj/kcYJItFdIdLSCj6OMlENdt58k1FoMOO7QVMZvMv3yDf5fB9BydiKeLc6cgqClAT64lZuE8yqTAkV1FFw0mDCOoY0ua3WJqfBWp1kGW8phmTaBILLKuB3QMuxpxXfVoiV4aiXP8NJjYnvhIZ14Hn84x+/rfRudKofP1Z+vgj1UmbkRZb8GO5tgCwPaXiJrwnjWVv5H0x+itZNUPTJiuKiIPBJoVFU2kCBo0tWtbX+TXYXhZVfYf0BdlpVu9Qd/kXruyr+fasoEigTlcAJvoE8BQ7vlKF6V1gds257dqtGvJlgeBR6n/x5b6DCcfbPUjBJQKuiVZCTzyR88IMfvE34eVkKXTIxcbxnLaQA3Et4wRd8wc3qMClZAfGiDDwPnvGCX+/xKY0i4nux0uNLXL6tDavG8ap8F7pMRFYD854yofRsTfgcHFfaEvj8HF182K6xhgT5tlfukeB78jSVhPfagA5etJtVY6tjK6IvbDv4fciLNcRP1GRFW/srj0Zt3pi54J/KrxAZdagP397nE/4Fq7sy+n2rKBKyjrY3Jvg5WNYOrwOOhYckPzt1vqMrlFZ56Q1q/DVASqscfO/yPegE7bdNQP4Gq6Ifr7ESm0RWRZPA5GYZJBcyMYEpDYHScaJga+IUQ56TBRe5TGJ1pyRanfEQT3jv3TEoa8AWgrMRPnqsAhYEJ6Hth7p8Iq8OCgO/Lo2xZrIo/GcxVgMrwImKMpSXwCox0Z0U8blQusklOQXjFZ/aQQ5OUfiIyIccWFyUEv5ZFE5jtEmY/VHalnHJP2gcevCYPOHUz7XhFPVflO37VlEQrpBFQciEL73JMgV/qNMOpR8SNJqHnlmmuvHSYFZX8WjM+pUvH/SYhCajSWm1td92suC/blmZpdt2CNpPQSjT5DVpOEWt6ianCSnwCfBl+Azc6krhKjNlqP741AZ5FILJpgy/CUWlDnho8MfgiePWaY1JzyJywuE+BAVHabhtyWKwReC3sK1yHMynYSsjmOhOKaTZRrAE1JM8J4wH+dpBriwG2w7bK/no4Z0zGR+ux8NPztp3qjD7db6rr/j6PuOn4uNYOidTFLNxCXcOpPKPZWzFS0iloyetEH1pHoME1LkGRp0NzmfSQKvy6AnRrZ4gvHDCW8vO9Flu4jXxquc8iPcmAJrKG9D2/hQGK8BdBQ5Kdyz4MUw0E9d9gcrgwcpOuVg93R8QWB1WUpe4fMRlO2Df7nalMupWJz7xUpp3acpztFrhKQVbjPBNRnn4ZBlYzWcwYTl3HX8W1MfPogzlRUk4PpUOTz14pyhYHPgR8ENpJSt1e5duPMBzbEtpuauBR6cwLCsWhm2XL2sFdGprtGvvhvBs8Oe+VRQGbZ1qgAjSDJD5hLfmlx6ueGlwpc+493DLm2kbA3t4MEDxN8sod+iJDmiwuhxkpeU8NKCt2k4ubEVcXuKzYJ4z6TPPrZjMdg48fgR7dLRc/Ta5pdu/C3wF4o4usyjw3MTBt3SP+vHDmmGNsGT4E+DIo9CkWfltJ0xGk5tjFw8+KutzdTxKUz8nJ8vDlsC2yBZB/RyzlIhTDJBlopw8MiWLlEN9gSbnpG2Ko2JyYmVpk/JuilIU/DwUicAqrb3i3j1oPruEe05RHJogTaQ6po6f8dLg9lhJPMXr8LWe8g/Bia9OeNIK1R3epLMPDx8GcZOvgVf58yB81oNtRh9SSRNMRCs25cCEtuIyqVkGlIXHxLI1EWw3TGjHkxyN7lsInISukXMUKj/5nQrOu/aaUO4doMNaUI9tjUBJONHov5XjG2+UAOVku2HrwSdh8lI0jk2ls4g4NcX5M9xxcKyrXseoFCNFJo8fBB/6nHWD5/gmHxaDr1opIFsP1hdFQTngVXmWje2MI2zp0gr6JZr161l9VbkHOrzvFYWVzGOQGMw62fvs3HVSy9uXNjtbfgNFemXCmfTLLy0+KAkDGoy/cM6C6DG/TUZHgyYGmiaOYFV35EhBWEGtkupwndvtQ2Z8jk1HovbpJqaVFg0TxLbDEauJC0fAo3y0an9tMdkog75RoZR8rGaVFmxd+BNYOfjAF4vAVgR9DlOPo0lbAO/aYbtEIfpexDtF5ijYP/8R+DpYJhSPtqFvS6WftVHf45c81Unp8buwTCiml3mZl9mUpDhlROGwevDOP8LCoVQpJlfQ0UlRTBkc6q+Nyfvgzz2nKAj/0KMzCt7hFeqoyjagmZ8GsQFj4JiY8sJr8EtLiUjzLs17T2Wq+xA/8OZgwmP89S4fLw1kceWiGf4+qE0GOb+Drx3hRMe7AW2VdtyHpgnCrDdhnCxQAiaTSckXwaxnilM47ijY71vJmfpw1IMmfj0rr+Rjn0+x+Nk6FoULUHwfFATaFIZ0SgrP2sDyse2waouzWvhUKAmrum2EfHxQjPhnsbBCrPjabOJTTvjkPH3sYx+7fShGDvjUh/AE9zf8awAnQ3hhddmaUWDifkhHnNKx3WLZ+ELVB2uUizZFd8qgcbEPbhXfB3/ua0VhABskFIRJQGGkLHR0A8nglw+3yVBacYPUY+B55qQ2DgygBor8yjWgJj5cOOr0wA1PXvS8rw86/Acms8kuSEMD1GaBVeCiFfNau0ET1qRkQTDnWRGOKQWOOyun1dnqqa2CyexI050H9Gu//OrDu+2L69rublAY+POrXGhSam5Xuvlo0qmf+W8r4d4EpWbi26rYPuDBESlHqzRWAhx8UAYmutMd2w6nIZQDp6Rblg960IM25ZSM41dbKMjneq7n2m6w4pGCcd/EiQ9rAl18U2Ye+OonK9aKLc6kq/3nPZsQ74M/J1cU68C+rXhWgEHsMWDmZNfBAih9xYMvbx+d8qKBjnaKo2PSUjrK1v5oVc8+uvLgR6+yQekmPbPb3QFBPfhBL+WkPRxxbh1yyolTHE4gmPuOAd21YMZz6HE+2iq4j2H1rg3oqs81catuP7tv9a+u2mibYPLxO6Dn9MKKbDsij6XAErBqO6ExAd37oEQcy7II8GOishLQ8LBEQH4Y7aF8KDjbAnX56pOyYRFQHPwgvpdJZhSx9gu2ERQJZUMJqEcapUUx5fDl4JUOUmaUke2Oj9fqYzQ9ZEUG0j3Vu1V4H/257xVFE7JOBBvcOlVHszI8JkYdPfEr04BQpnz43qU1eKJfObAnfqIVTgMOPSE+JpRuorvMxEII12TGu2BldyfB6k4xmJxOOEwYg5/57XSD78F3DH5Wz/bDSYKAjqdJ4J35b1IrL52saiu+BbcuKQpWDJ+D7Q7lgFe/GeFeBF7cHqUoTE4mvh/P9d/C8MCq4Buw1VEfH4ztgYtg6LIcrPxOcWwD+DIoBUrQkS4FarLnF8GnQKnh061L1grrwFYCb5SUbRbFY9vBAvJOkbBo3PVg5Yizvshc36FXn9W3YP21VXwf/blvFYUO03F1qHeh9CasQWSieQz+OrqyM16ZCeF5pDXJvK/1SMNLOA2y6E8YnzPNu8Bbb4JxAkozGdAGbUlMLPn2+QL/gwlGgfD4m3DMbSs4n4DJaCUWWn1rO17RFrfNYfo3CWsz+eHJnQ0KwJ7eSm9CWulZNLYJJrs6+UgoKpaMkxY+/7xsnAAAIABJREFUB2VMevciKBdKEE2WDD+Hld9WgBWCjpMYCoHicQICR756n/u5n3vDoxT4Nfg6krk2UmiUljKsMu1yP0PdrCCO1nwm+CQfipePRlj7pDh5eIpvyPfRn/tWUegjHWeQtPo18FMeJoG8JkgDKrM6fHieys10aWjYAqADz6SleOStfERbGXTmAJvjqgE3oXwT3mQxoOUp792kZLb7fQp1mCDMchOW6cwvYCtgglEk8gUTivUxf0ym9qLtHZ+C1dtktAWxunJUWpGt8NKZ9FZp2w0TEJ5tg2NHWyF8+trThGQ5OLFgPVBelJZ6WAr5TciPH0G+Mso6wWGxaC/F48M6ZdwjoQBYJbYf+MlisKXpZEV7XSIjB3LhO2E5UGAsCu+Ule0ZvikKvxNKpmtfkElpsx+l3W/hvlUUswPnZPbe04RowoqnOAyM8sHKwPWgb3B4pyAoBiuRtN7lCcpXDv0ead7RXgdX/E+IFv+ASWHScjS2IltRTTD1G9j28VZzJrnjPlsMOCYKX4Q7FPgSHA2yFmwxpOEJb7U7HuXzBVAMTHGPPTz/RZerrM7uHfjM3KS1vbF6czbix+RVRp6tkbgJqxxnK4cha4hMtJWFxILIj6ANyrCK+BD4ONBhHXgcb2q7rZR7ICwdWwlK1PYGHY5RjksKk++BJcaPghblwGrqmjnIMqn/yHf2lXdpPfXXJtj76M99qygMNJ1XaALUoeLe4ZkIxcEmibJ1/CwHR7nwxGe5rAZpysdL9YnLE6dkUkpwC9W7QvnuFFiRrZosBvcf4DmiNDH4Cuy7uzhl1Xfcp53qtKc3oaz4+GANmbxWVfnSPLURFEwmPgIrLhMe35yMJp2TA5eXrMDqsk2gPExeFoZVnHnPWUoB1H5pLAu08WGrZFsiwEXP/zJhpVHEtiT4p1hsTVhQLApfqfJRUAgmPGXC6vBQJBQcfvwIjiNg8rFtYa20rZBOJupgyfhOhQKlkMmAjEEyql+8lzbTtwbcR39OpigIaZ+gCHQG8TkQK1MauK8MGqVHo7Lyqt97nVq9dSTa3ueKWblZRhrc6KtvfeDHq7zKrHjFq2eFJlsrdvXV1soGpVt1WQQUhQlrkOPFZDLhTFJms8koz0SV7oiPH8CEQ48H3wQyOQUTlenNGhFSnmjjy2Unk5YiwrPgPgSl5NISk52VYyLyhagfDXUVanuyla5elkZKi7PVRTH1UgwUobignEfAd9s7dOFrm3pZALYorCbbEY5RE942hyJhcThylWbbRVnhs60Npcb6sLXi3OQPql71CMkFVBYP8QfW7tosXtpG4AH259YURXKaQk7YhF9HJOjyErbOKA2t6ICzrAFlP27QCtGGN3GliwvRBcM7BLcCw/I4hIfWvid+ak887KOjLoOYqU8ZsGhMSlsR/gcT1amIicwfYEU0SeA6+bBK+rYCbZPKvp+Jji9ysipTKqwctOPNdsWEQZ/yUd4kNqlZJrYa6DVR8KlsbULfezSzxOApizYrQbCV8u2GQBFwtGZhRAM99PGMV5aUNiczeNVfWykPzkmK01ep/Dy2FU40uo9iq8JKgUcOFAhFxUIhP1YUesZSbcBD7+r14C9evM/41rAH4J9bUxQJT4cStHgDQUfU0VPQlSktqFO8R0vnlWewueEnDZ664FWmTi9NHyq7dngdHwynwXEMfjxNGL0VTpze4ZigBrr9NYvCiYG9uhUUD6DV0omAY0ltF7Sf6d2NSxOLY9QkoFzUYTJROLz8Vmb1uT5txadUmoxwpTPvWQICXOl4qO8OpcGRJ9hCUAb4FqziFJuAB1sYSk+IHtiDJ3zHb+nxoi6P+AwsM5fM+DooW8GHarYyFAclQoG5Im9rQ8ZkSoa2Imiioa1kW5vVs++Jr8nDA+n91hQFwRIo6BEIs7i82cm9y/cevjJwi1eudIrBYEpBRCdYfaAyQjRAafse5ZVBt0faPlxpaO17tgoXi2QfnrTqtHe3EnIqOk2Q7t6CFd8Ad4vSCi1dAMNhelsd8USJMuttZbTBgLei8kPwe7ihabJw7qW84bEqWCv8CWRAvvEsv/faPeUjTxlQoCDU0YdXJquJqSxrgaLIwoBfueqQ1kRFd4ZwtD0eguj7ZJ0MsyhSFHwU5MgJa7vCx0Pp2t65mOVymhMlVpQ6Gge1S1oyjwf1eR6o4dYUhQ4TEqR3aXV2nSs+BVwngNLBiTPT0ZDnMejEDfg6ETxEQ1604Ox7qhv9aO3Dqw74xz6Tx/lORtpg5TWIHSsawJyJTg/mVgKu+pRvMlutWSEdR5pkthxOKSgOce8UkYmCnvahU/9QHJyflJO2KROPcHqX512+JzlFT59TFJygKQpbg45q8UxRaJ8wZYuGp3Sw9ibj+AArK887GVKmHMJZMxQoi4KlxSpj7chzxMuCY205QaFY8cXaYFWoF6+1K5nPePVvDD8A/9yaoiBYgTB1GmFbKXnI5791cyRnz8hMtNoZNI7PcuLpAGWjg4YyDQj5OtMEsXrao5sQ8OtIfDSYvNfRk0YdHZSnvHbMQVL+CuHve+KjQR1O8QnlmXDqsy+3jTDQKQzbBQ44Fga82ka2HmWSk9MBK2Nyt31w69IWxL6cEnDvggMzWsp6J39OwJye+JMenri6w/duW2D1lVY+fCGLInqUkONK8qPcnVq4gFW/KFedIDztmPKWHk7p4vUVWuK2HHwQ3dugpFhRtmuUqXEnaIPtjRMeytPdDX4bSsNxLYU526xO9JMBnuNjI/gA/HMyRXFe2xMUoXkItkceoTIB7VczBdGkEDoPNyE453SQAd1gAD3SHHFZLXUy89Dq6J6AfTYTlxlpb0+ZqLeBp67iday0eARrw6wX300A+eXVzugbpPLgoFWZJrK65Lc6w4mWMkK0ihvQVkADHq47AE4fmNQUBsVKcarbRI0HpjWHKHM6uiaIFdNDaeS0xId6BZOZHDkcpdV273jyxOPkfU2TV6Ck0ATxx/zPKqLgjQfbIKF2B6Mx65WGZ3JVT3nSkzl+PBTEdPAaJ06D+IEoCn4YITpoGZscnXwVlIUxSbEaT+HWXnxQdto15QgvHtD0nBcuin8evYvm36qiqBN1IEESvD101491NiF7DGpOPI4tWtzAkq8sOgaVq76OAHWslY9CsV+nXJi3HHIGgiM8g4Hw1TsHwtoh8noSbnxLV37SkIYGnIlXvDJwBKstC6dBHJSnjIC+iQ6PJcHiohyYxo7uKAT7eFeiHXFyMlKGFAel0EAlr9rnIhalYLKQicHvy04TwCkRPPXiAU+Uj2NF5nbWgbzanoyif0gOk662sSj4CVzAcpTJQmLWtzjIa1uirDqDm3CGglensMo4PLwqG6/azgprYbKw8I+QL8uBshWUq1+8kynlQH78NPh1+7N+xKNHPSwRY00fqHt9wo3HQ7Byx+IfonPZ9FtTFHUqwRMiATAxeZbnubl8gjbhHcVRBCwDZrFg8AtWOyZxq4/BpTOtlFZIE8C2xlGiSZbg0fc0eEoHS5MvXvBeh018acqUFo5y1SOtgHfpBiEZWH2sTLzq7hcYqNrjfJ9J7jjSisv0NdFNcIqTkjDhDHxXlduCoFkd+FI33shTOZOyLzn5PKygtjCOAfFUe1hqlESWWDyjhS5c9XhqfzAZhKvtyce7ycVH4od2WINWaP2lve6KWBzIpYCe+tCINrjSX+uHUz8GtZOsyE5gUbDQTG53RrIoah+ayoK2G8aXS2rK2yKxXuNFGXgWMPzH85TdbEPtOwSTWW0+hHdd6bemKFYhEaYV34+t2KMyfQUdQmszBd3tt3rqlD6KMhkECoGnutuILA77bAPOnpyjyqrpklFHaQ2AOq8B1KCTP586q8FiIETDJJnvtS8cUBttBaxYrCfbI0qA8nN12URxoYllYL9MMbB+KALtVoY8yEZ9lIr2o53DkCxMPPcErPzyWAgmBT8NRxyFyqQnR5YXPDJBgxwpI+8CheKEg5KAp1552qe9tU+6Rzz5JYMmT3noKhvkvNS38E1WCt2qzbp0b0SIVmWi1cSpztLBHnn6DH/e1a0cn4wxk8WijV1Kcz2dshbQmWNkKnU+DhYu5e26OaUBF33lhOpv3Ij3xP+GeMafi+KfQepSWbemKHCr8QnUQGbWErRJwrqQz9Q2SUxwN+04Iw1wA4jgTT54cFgjVlWB59rqaD9t8JkkPPku7zSBDJgmmEGEXh3iXRqcYANPWu/4V6bBZLXmOzChtYnlY6Ib/BQghcWLzrKhFCky2ypWFFzto0jwqG2F6lFXbZYXnykMvFKW9v39roMtGDOZgnBvgjWiDmV60FWWIlMeXUrMUaD+0K5w4PUOz5M8pHvEwSZCaWTnndwrq/1koQx5qJccWI76OdrKRq860eqBJ7149MXne/xrpzGTRcE3QjGSPX5SIJVVjkJN/vgxTllm7llQvhQexYwX+PHkvfjsy9pTPx+CtelY/EN0Lpt+a4qiBhOebQNrwoQycHUQp6MBbYB6KAorrL0ys9ApCI3fPXwT09bEhESb4kDTKm3vabLY7zIV0WFeCurT+WAKoIHVoNbZ8x1ulgHLxRbBym81th2gDCgo71ZL2wEmLSuIAlOWAvSgVcB3QZ2eBghYHB5+BLDHADeoM6l9/KT9eKCEyCpLAQ24ylZOXwj4Y3m4Dk6BwRPwoJwnfuR5L5Q+eZ340dBu7+qnKKzKylAU/AQUBWU3V+jqgqccWD1oVffKi/qF6k5JGUu+AdGHAgvNWDMeWGWdxDTJq1/56tUOPFu8yJiFQdkoI6++UdYjLi9+k+fGwBl/Lop/BqlLZV27okgQ+yBh6xwmH2uBpk6YJpdJ7QSDc9NEp71NcHtD2wlOO5NUx+oAisalI4OMg8rEZK5bvQ0+E4jmR8tkUH8d6h2POte+El+Uj8Fii8C5hj7lxTRnFVBAVlt7U/xTcPbz6rFaoWESoq1d1aEeIZnU5nDABsYKoyHdO/7DN4DJgT/GNxh4gNfAVKcycKoLf/IF7abQ3CHgAN63oioX/ytvM74RHG2M3xREcbTI1lEvvpjwlK6th62i/pMOTxn1e4yV2gH2Hl3tTFaTF2lw4KuDk9uCI829Cv4r48k4wYeg7ujVfmneyc5W0GmTxcvYUpbvRZnwvcdjbVGnd8+9Hm5NURASIRKovSIonnAJjgmn0wxmq6+4jtGheft1Up1hYjoJoASkwVWWchH3oEP5qEeQhhcPXIqHMshn4OSAhZDj0GphQFBGVp9phqqvetCPLli7wJlXenyIG1Cz7Po+B1qDT3np2u/Xm1gR+Ile9EFlqhdteFZD2xJbFMqPLOMD9JjkcOMHjd5XSLZNgslvMoIvUMYWBNsMcqUwKHbbNJ+Xg8oIykSzusXXNor3yK+s8tpfnIXF/0Ihwqc4jBXjgKLU5+HWPnjxMGXCGczxavFw+Y21IsChwC0gZBqdYLQ25Hv4z8kURQ0+FiaoOjSovHeDAxTgUhiCfKEO7724fGUNammeBqe0+NOB8oLqMukNGhaEjqZwKCfpyuGj+r0rH98bU/+9YpcGVkftXaH6PdIFEL8r3oxXb3XWJnGTzpahSR0umivvWRBONJjMzG2WmIEt4H/KZ/KKH/nVfQjGdzJJHuKCLZpPvd0qdQLhFIaCcL/BqUf3HOKnetAtxMtaV/yFpywcEB8UBYuiLYZ+9pAdq8oCIaBTuQkbZ9LIjZLl2/BFqnYJZGZr4/gUDtr1d7Twc6+HW1MUCUYn6DSPld4engALhEiwoMlrBZKvHCuE8xLUwXVoZYN1CBie+qKDvrLqCLey1S+uk+WHsw+iEx/KFiq3wtoervyzFAV8+WCKTB3Ks5YcM7KG4MRLPEizHWE18Qk4ivTYrpks8IXahaZ36d5rV/SknfXMtsYLvnvHj2Nv9xD0OwerLR2/iklsgjn5aCLXbv3VZIvHeI7f6pBfmDjKczpTkG09bHG9U5R8ZE12PM+2oIk+fowJ+cYgWeLf1pS/zFiTzspQD8gSnfSSXzzeq/BkimIKcr4niLMgfMJj5hOmTmQCepj3TDYrPdPY0aG7BUxlPgvHWAa/MiwB5iKHpr02v4FTDlYB+lZQZTjI4NfhvcejzsKTwRAOiEY4E8IXV2aGiTPfp3yqp7Lw5kBacfHaINU27c3MddRpNRZXjuKwxycrHn2+Cw5CK59feiJr5rb6ZqjOeJ68TTz5h0I0wCaterzrV30iOJGiLEw6wbbPEaVgW8kPZTuFjhWZAiGD5BB9ED/FqzMexWc/i9ti8IMYE/CMK+PG5Oc8d1SNnnJ498DzKA8vv5A4BzC56hPH0xSfsrZSfsyYHwP/ArrxHI9bxj3659YUxewAg8YpBUWgg9ybYA6DHecxA92lYCoaTAa+7xU4NlkitiaOpjiT7Bc5yNz08zGPzmmgcFBxNlEudbi8Q53W4CgfrqdQJ5cvPh/pnkJ5Mx099USjvEPQSui4V1tNJAMcXac8fi9SmiM7CoHT11bEisaKcPTIYWcAF2rPrE8emvJAofzyxA+FcJWvfdpIWVtx9bc+sFXSH5SaPCcILAqKg7WoDXwXxgjFb8XPspt8oa0e9VYnOHHEBTjaj44boW0xWDCUp3ROVfIyrpRLWSiPpvrgebwLHOaOoJ1+kTe/hHYZh27MGssWPeWTj/d43Ijco39OpigIs8bXWYQrfeYlmDoWpJVNZiuLjmL2EazJriMdZzpZYFbbt9pLWyU57DidrKBomCjMakE9HJ7MWp0VDzqKFaIz4wWM99Lqr+IrvCx+5YIr3eLqj2dp4ZNplpGfuXe8R3YGrAlHKRj4fjyWsnUCY2Uz0cgo2dQv5D+f6j8WJqfoznLxLE0dFLpV9ZGPfOTmcOWXcG380Y9+9GYJUW5+no6fQjvc4ZDvOrXLc/rfw6rUFjSrw7s2gZSMh6zkqx+Mx9ouzWpvDMHFn8XJGGGtOYbnaA+fjHuvLvVVj62LS1cWsPlrYeiphyMcrkd5fBWSW/F7Dd6aoiCogg6zxWAaWzVA1oO9tktDztmtKszqricz76w+btYxuQ2MLmqhS/CUhk6jKNShgwQrsZVMGXh1NJy1w4qvEO5l8Ct3HlwHZDxKxzd5uBfCceadOe/yEOVJCfrpu2k6a7ey6LQKGuTrs7bzInFtEtYy6pVGcZtIlLdVVh8y9W0VbTcsBkx3FpE4q5EFJN9qTcFTJpQGZYl3dGuXtkkjH494dUvHn7j30t0TcfJhm0OZkpktDqvNh3PqFZSlnKor+tUn3zaOIsMnRccqsYjZ/rlMqK38StHDeyGZFb/X4MkUBUF5NLj3OoRwS0sgM04oVkXHS/aLPMQGgwFilTSgdJ7VhmIwGQwkNy/9gxamrA7wGTCtLaiHhmfupSjih0Vim8LZBM/EmfxIK8TvCi+LX7kg2ex78AqngQh68AFSDCwHcuAwsxpagQ1Qg9IFIPKQxwFc2fpiX53S1naeF8djNOEK0rzHvwkrUBRW2v7hD4XhWNREpRycNLAY/QanNM5BOB7vyvo1cdaSVTp+0TeJTd7q1N74wIt4be4dTxQCi6U7E6xYR7LKmvB44ssQVw9a6Hj3RFO6Mag9tsYUGiWOtv9r4mGhcM6SA3rxr2zPJqh78M9JFUWNBQmiDiEQcc/E8S5It/pTECa6QW5l4ejiY6AI+B2soN4pEHcpaGgd0+09R1P2tzS4fTivtY6yF44He05n9UzMeClv8ldfhbPCtT3H4lcuqO59j3yBDD3iFJs2U5CUKkccxenUguLrv3mzzuBQGCaQyVAboxXdFe7jpbLxvEKymWnJqjR1CCw/k8ciQIHrXw/LkNLTJ/re9kTcimzb6Z3S44i1TaEwrP7oJyPtNHGrc4WzDfhpkuPVR2i2u9IsSLbALBa/dm5iN74sKAJalBKovKA+igIdfWTbZ+yyXikbSsfW2L8HYPEpiw/lohHcCN5jf06mKDSyhoIEQBg9dVx45ZOHFd9gcLRkRTToOTUNdMdMtiA834TOuiiwPqw8nEY62YCT74SEIrFloRQMKvk6l+OPldI3IdFa+Ss9fld4WfzKnQeTYfti+BQe+ZgoHqsWRUhOrC0XfShCVoRtCJkKDfDqRPu6QnybBGs9nIW2lHjFO6Ugzs/ConDlXHu0oy0I8x8eP4Lft/QvCFmE2nKq4HsSzkdKgsIx9tzCFUx8dafszqoTjrGFd1ssSpGyMe443SlI7bGdguvRjlVOZ9VxW3knVRSzERqfkgDnIE0wdTYzMqcbwTKr7fdMDOfrtLsyTDbWgnKEDI8lYnJIy2FXXSaMLU1KQpyp7vPh6o7Hyqgn/rSn+Aovi1+54Eq3OL7wPc1ebfd7liaXvXUnO1ZdAzQZ8vH4J8SO6zgyPWQpnzwv8+iPQ499uK2PRx0euKDJR0G4C+Hhh2AZWAwodea4S1WUOzosDJahck443DJ18sF3AI8VZWtgVQZtQ/PLSDMJ+RX4N0CPNLgeiwdLxaLiscqTk5We1SLgF45xZ/tKKVMWcClligrEp0eczL37h0f+a/tDH/rQrZzPEyx2rD3KyKmdthm/+lc/6/N7PZxUUTTIJzxrIsJrQjSZTSBpoADH+9TAk2bv8ve9R6+OMfFo+OhV1+R5vteBM817daHvKb/4Cied3mtfZSec5eOdB96qZNBx7FqZ/fMdpwjeKRGD2v8atZqZWMx4VpcBapsmbr/vHWQee3z5KB6euHQrPRhu6Sasd/kmvnJWUpPGsSIntHfQNsMxLevO/QLWBAXBPHcrU7r+F0xw92m03wIg37/9027WhscWlLJ0FFk6mh5Whzw4fDYeq7g0ZTnDrfbebdvIjazIU3nKjrwpFH4LfcLn4J8rk6P24NdWQrtYQRzm2kdZS6MwWL+UB6e5kzs8kCNlZWuojsaetp4X8BF+uNJuKtwTioIAmgwGzCrEdVI2iQjJe/nHwOoJV/k5Qdf3OkJ6dcUfGvFSueIrrL7Kyq/MIViZlKgVzvGxAU4JmEScfwZgafbU4gaoIzkrn4nLhJZmJRc3qO3NDXwDukdaE0FZj3LK8ItYfeFSAvwgIBzvTHb+EvWCVmDbSSu1uL1/9YDwTWAKg8mvvSwAJyK2S9pL8fl5AArJikzB2PNTXCagduR0pIQ4PuV7TFp5lKM485+CJCuKTb22NdLRp4DJQx9Z9fHNMqKwWAVkTTFQCuiyMtCVJ05u+FMHHIpHHXjioKVYyWoeuTZOGmeHoDHSeAtH2k2Fa1cUCWJOBo2b8fm+CmPFXQUzyx7zvvITvUNly1cuJZPfIF7lHSpfurKV7/2scvLQZ/2oj7JgmlsJrYImkL28VdXg5rt41KMetZnpnMJWSYPTymaSm7SOjw1+DmGTGZ7JSgFYBXOASvdQAk1oE92kt9pTFvA9Br40DzrqMmEonOqGg0fKShooH23KzkQlE8H9hY51OQcpPhNeOoe2rYnV3nbD1sEWweUzTnBORH4rcV8f80d5bD083m3ZtN+2x7GydHFWg6N5p2jkRPZwOcRtcU3urA7KjMJWv+0fXlhCLBBWh3sgZKWfyMKWmWKnlCgNfKA/x0/j7BA0jsIPR9pNhRtXFDWsCRQs3QTxrOGQUCp/GTjrOFQ+HDw10S+jKBoYQfQO1SkdHlid+DCwKQZ+GQPbJDKpBHgGrUnFL2OiP/zhD99McCuoAWplZW1Y/UxOcauc1dX2gQOUKW/l9hjcTPislUx99cqnnJTlQ5BnJVU/q8VKb6W16lt5bUusxr1bifHkqNP2gG/KJKfA5FEMJp+rz7YL+FaPPDSt1GhROiZj5r96xMHqasWPHzx64KBl5cc7/nyeb/vicwB9wHfCv0O+HOAU8IMe9KCNJ7KhrJXFByuHT4WiYKGwlrSHhUTm6ucL0Y/18aHx3rgLTvyZ1vt1w2tXFBrYMxtT2gp1zqooJs6k4X3mXcd79eGpSW7Q9F5HV3f4K5QfLiguVG6F1cGiYE0oY/DaX3NeUhYmqknM4eZKtNuqFIRJagKYzAaqxwrnUdbKy6HrQaeVF1QHWt7R8xjYnspYIaWLOzrkpPTu9IAD0z6f9eM0igkPOq420Zjy4so4yeKANFEf9rCHbdaFiWQLoJ3uHmgDHp1i4Y2jkVM3Z6l63BPhsFWXj65y1sLxLi8Ha+XwA1d5eXiiYG13KFxKUr36hUWhfbZHaFEArCG+BkfWoDaDrAxKjNXDf6RtLAvKgzK1PcKn/mysez8v4CP8cKXdVLgxRbE2qIlBSAmNIJog0lacmZaQKn9VWF0rjO81/aKKIv7qbHFhpVs8OVASPe5DUAC2HbYgBt9DHvKQbUBaeR/zmMds5q2jvSc84QnboI3/q8L4Xeng99gAF521DGVhNbdyO5VyUmDSWvH7grM6kmPxCffxuNYFf8VjIZK3QNZCP1JsG0N5UCxZFhQTy6stUn0K4pe1RhGy1tz50T7bDtsVSk4d9e9Z7dkY+e8/2lE9pe9rW3mnhidTFDW4xqydcRHGlY2OcgQSfe9TQGu6uE5Y08+rH/6kW51rfdEp/Vh4iJ/qKV+7e9SVj0K+AWZVc5xs4PKgM8n5H9xFMSApESsbXwALAq0GZoNT2rF8h5d8ih8Dawdc5au3d3FBO/Arbp/fBOTbMPHgV380Zxr6QnCLLH/CXyF6Uy6NHcVtfVhtFBdlYjvkbop6WDe2anwcQn4kd34oc4rGyRCLRXlKXZz1p7x640W894XteyZ6MkVRBwY1/KyOO0sCaDS4E2AQzUm3ehJ2ZQ/hH6pXOYMk+spLW+lUd3jHwpXO5AON+E4xxAtIFuVn6hrEzGP7aea/lYqZK+4ImKMxRYHGfNA6xHd8rvAQ/lnp6qku9NZ3ccHdCquwey4cik1MTtMu2CmvLu2YvFX/lOe+91lmvsfjPogOi4JPxnbEtoVcWQkCxSGPI7Vjd/yyHigS2ybbOMqFonASQsnn46pNtQHYGeGtAAAgAElEQVS8V8PJFMUciN4JniAuGhoMJkx0ojUFG92ELA+eSaUjxPfhV26FDZTKRW+mV9dlYHQrO+uXVn3aXNsrU562yfPwyHOsUQwsCqcHvPLuUDgdMPF8ZTlpa0v9FB8rrL0rnLwc845uNCYP812+QFFwrDqGNDFd5VaH0wcrdPVFszgozXNeCG+Fk9Z8JydKWTDpOW35dmxDOGtZbwJHJT+RbYl+oVA4aG2h+CP4YVwcc6IkraPReN+IjD+Th8nrQLmV15MpigbFnNzHdOC+VqPVKjoFl3An3YQpT7kmWuXK31fPTAu/NOVmfbNOONE9FkY//OpZ08tPntWlXSkKeQYxJ5zTAk4/e2YKg1XBZLcFEUcvWhNWzwonznyPz2PhrNe7cujNd3Ehi8KqTFE4wtVe3+3s23pMHuI/eR6C4a1w0lrfU9jKcE6yEGz5TH4nKpy3cDiPOZGV58zUF+5TcGbyS/Bp2E5xYiaDYPzG15w/6JUe3m3BkymKhEwANfCyjULjWEVRXQkUjIeZdx4v4U680tBcw6zvmHe09tGb6bOO2hHt5GFgegT+Cma6Aey41D0KTk6eeY40qx1Z9Mz6o7vC+FlhNI6F8Q/fO3rru7hAUTDXKQqO2O4xMNlNUCHeTaTJW/xvSJf4U/kV1s7qY0lQwE475FFolIJ0jktHpJQIxeZ4lmVBgbP0tENeli6aKYTaVZv08778SzTtpEVOpijiisCvEgiMsHIOJbQEWYdWh06Tt4ZD+Cte8dlxyqJbWnVIr/6LwkP8RKf8oHRyEFe/99Lw5d2RnWvbBq0VzraDgmDCM3U51CoLKlPwfpFH+Ys8aIfvvXbMd/kCk9wdBPt3isIE1F6r8Lr1SD7B2lC7Lgorv0K8SSuIs+BskRwVqx9vfBDGqgtktkydethu+G0Kd0TczeDboNjrU7CxnZzEs2LkS6+d8XFb8OSKYm3I2gHFwyueQMS9JzzvpfUuXqj8Cstf4YpXvPoPwfBWesfGK79C5aWptyBuoHDuNaDk9w4KBqd9sJuCvsC0EvsoySrMFKZIKkee6BZWPoqnHJNDZcTD8W5y2P7gxbtJAFaPOHy40oTi8RC0+lqRfdTHnHdTkrLTHkoDjesKtWkfVK8nvrWDdcCq0Fb3QtxRcWztNMP9CXEWni2hOyG+duXfcBGLozblQCEkL23jkHYcTMH3tXN1x9t1yeAYuvekoiAYneJJWLPT5BcS4grLX+GKVzz6h2B4K71j45XfB1caeDCQ4JqITTQDS9wkdBzqurH9sYFpgFndfBfBuuDkvIyiONR+PMQ7HLxMRSGO5/AouZROacoVoiXuiJHzVbvs/22nKArXs63QMyh3yhAf+2CykOcddOHLNW03NvHLqnD64UjazUuypzAc89oG+hjMLVBQn9iqCMrOQMG4+0K5sKrUl1IB42+Wucn3W1MUNXyFGi+tTgJLW3FPGZ/17XuvrvM6J7xjYUoAXfXOSdVEk5dJ6rsCA8+1ZgrCyYa9sBXJsZ3jOqsypyYTWUCnNuFLOMRfeeHjJz5KAymsePLuqR60vReqEy1lZxvluUfhyjMfhWNe359QNCZhPoqVVvFj4aH24mfmRU9a7Z3v2unOB2UmkLHvT7TXaRMHpmNrWw+XyGyrbAc9fp2LQteHFKA8p1eOum1RWCquoruV6kapQMZZHvG6Zdzwn3tSUZDB7CTx2ZnX8V59h2B1ntc/4R0L1Vd7DQqPNCuq1Yd5axVzhZnFYGWiIPwwrQFrIrn4oz6Dzn7YEZwze99OSG8CoysuHOKvvORwSFHMdO891SHuXd0e9UmLHxNOvsCZ6ZSAcnCtmtOQ+c2icOU8nuNtK3TBP4faWzvLj6z4zKst8skcv6yITjQ4kDksffLvCjre+V1cuNJP7lFQFLYilCJrkPXHj8Hv4aibdajffMznDkkyIjcyTKZTHvF73fDWFMXshLWTNLq0VSgzHY0Zn+/RX+HEme8r3hoP97wOWcsVr/wKowfPYKAoDBD7Xuao/a0VyopjMBlwvrPgn/B1p0/AOcoEZ/u+Q6BcKBPn/0IDTB1r/Ws8fleIRk95yva+Qm0pDZ5Q+9DRRo/AorDisijcR9AuSpIz08pdebjzfSt85J94WWGyQXfS9h5u7/FrS8dis03SJse4fBJ4phxYFbYflLpLWhS4T9T1oWPrLEJKghJhMVCO0lkVTkp8bWtrRybqVc/k9chmnwztnlEUa4vWjiu/9NmJpU1Y/gonznxf8dZ4uPFxCK7lilf+LIimQdF3DgYOa6KPqpi5thb29CYWE9YXmBxsAqemrxnhW7V8vCU0wI7hZQ5I+PiNBjrR2hL3TFz4yqFTkGbAM6ft7U2A8OBoh/ZYoVlDJgmLilPTSUIh/otfBFZ2hbVH+gzxJ713fSPO6mEF8EMItg6UheAze45Zjlg+B9sR7WA9cDxrqzQnVZSJK+K2jRS7LQdL0VaSklGOEvWBngWkvsHPTYdrVxQ1SOMS+Oys0le80oN12MQrLZzLQjQvWrY2VC6+St8Hw5VngIo3AEwkwQpk8rMY5j5VGautwcZ77jYgS8L3Aw1YPgpmq0Fr4tknC01w9QmTt3jaMpa8iXfRd/TQrm5HnxQXnwrfA2vHT+TLd4zLlCcDR5CsJErDFXRKQ93RC8bPyn/xq0J8qSM61QfaItkmmMgCnrWBIrEt0TesCEqb4uCXsO3g7KTkKQn57luwICh2/aqchcDXpixDX6/2E4GURPxsld7wn2drRVHnGxQNiGNhZcOv30pfIfOyzpanTgOLouABF28/67cNWBXw0YejDMXBtGU5+GTZisQnkdPSr1wzW/2AjD2wLYqAdm0Un7wdy/8sc5F3bdQODyuBAjBJKAEKDe+OQH3cJt8+nxluMrpZShZoCHgtxMPKf/FjYXRWSF7SouO9NO/dxsSPdD4VuPxIlLSTEFZdn77betg6+t0PT18AWxi0j0L02G464uaj6N9MoN/YUcdthGdbRZHwm6wNiGNhAyv8Oq/0FdbB4aufAlC/va3fPDBZbDdMkhVfnCKhKKzITFUOM0d1TFOBRWGS8VHYQ6coDDL1RXPyFj/xX3yFs8x8X/GKw/Gu3uoG8SKwHjho8Wz15IfRbhPHKswCYaKzrFIUyqG5r/7z+I+vFcbfPlgbqhOOIJ2iMKkFv8TFR0FZUAz6UbtsQTg5bS1YCZyctha+yfEPmihzjmg/auNfQaLJwnDDluWBXgvMnaLY40RaO7OOAgszbR/+eWkN2ptSFAZX1oPOVy/oYYI7SuPYMujiTVu1o4lOUTBR7Yl9T2BVtno5dxdsSVzaMTh5z61uQpMALeEyE22Wme9nyRmeuuF4147e8SFOYXBY+vUqioKPwmShKJyGUHyroogGmtW/Ney/5VXaMTDZ7IOTvndPfJvULB6B9UdRsIhs91gMTpwoDFsHlqD/R+Jehd8NUdb2gzKh9H1spj8dC7soZ3um/dqNL/XeKYpbUhRzsDWYjxlY4TRwim8jZpmE4QSzIMTVSUnY3xpQJoQVhHWR8oKHfoOFouC/aLXi6PKNhEEqiLNITDa+C3tcQfnaKB4/0VfHeWGWme/RXmH1phzWev9ve/e7I9tuFHz4MhICKICIEEGQkIRAUBQRBSGkfMmH3Fau+bx6ls5PKtW71uzuvXumO5xtyeP/5XK5XC6XvXrqWzsLhWAzfmPsH/D4fkUcncKxduGw6V/61jA4O4RXfYElPvNoOhY1Z4wJeILConescjQ0v319SrB7UEVIgKVdIduGWxDlji36xAeFXwXFEwVFzGSyi98axljVPzhmLcLqxHCYIof5/Xwa6znV0yLBGPxkyhmnKRAMbBSOHBiO4HBdxxEUmBNcLx3nrYe+4cptvMo/Ci/+zDYzjoHP/MQbSH2oJ4RLi0Ca5kOjQgO4+4zb+bz3FdT5jL0Trrj2fK70l4ZwnPBnv3CnFfjojiMkzAnNgXfsc6RwnCIoaBWMtebDLYdjBfhpmOhCQNIkGKgJeuUJSH2rEz6N9SPDD7NR7EHdO5GbSNqXdy+ss/oxxpfiGV7hJjTJ4DNalm9BWOx2Jm8mtFOnxTSFhjIOE9IU7MCY0bFDmObgSOKdhV0YoyYo6h/8xgmPcAn+HvtM13aH3fUbG8bXFx/swjk+MBIU2sDT02cLzsJyS8Do6RsQgrGPw1wV07i4T+GvP37WCy99z0U4cWzMu33jVg6OY6JfJufgDUe3Ut5W+AFg17rmRpqNwm2Gr0zZllyR6hOc4IarPL75V67us91XQfEtQzUhJoyLUT4nnMwpbtJjCEzAYEfV9rAIk2FaCyZmUVcbdbUPJ4KCJd3u5efWqL4s6Rkt2SjsYs78jGcYkwOn/sOtsPEdFd/4U70dgg13+IbrGS0bS6E6YAktJAKTrcbOaly0CwvKValxe5eAZo5ZYGhbf+LbheccpzinT/gG4wzObq8Nz2lLo8iYSdATGjQ+2gNBQWug1dGGzA+h7sMxgsLDOH0GMxwLyxeeje1A4oP/fBUUJ4JiMknxe8ImXBtxjMVjcEzvPT+jIyMYJz/mV4/gqL724HAEjB0WEzpyWDSYsVsP3w6wUbhitIO5etQWrJgveBPH4B+dfMYfsIMLlrTx1K+y+le+6/q+A95uftDENaGzPuHgbYGzvRseGpOFB+6n8NdPfVW3oYXfLK9+dUrXNvyV69+1bTYKeLvOJOQIPZpixyZjc7tjPhwVHTX9mA24YAa//iZOyl7FfRUUF4KiiZwTeGt8Tr44xrLrclRUFn4Mj1E4ZRYWJ6zvzUgY0dGDscvtB8u6s72dirMDE0J2NjsYAQLnFmzwJjM2pgPAG3+qt0NNwA023I3BUWQu6OrUvq7UcXRyU+B9BW2JVuQbD0LQF5fUd5oXO0VjmTQGc7v6mfXUCb+Jr7zqB6d07Sf+cJiCgkbRfxUjGDysMjfmyjzD37sJthcf89EowA/27H/mi7+K+yooTnYeE4cxMEQMc08YAzTpFo44TcFxg9GKU8+VmoVOW1BHXT7GnLAICkzo1oNGgRmFHT3cEtA4GMMYNRkJtU8QieujvkuXdxRc/FHnyodv5XBvzEJ0hAP7Am3HOIzXuI3F8YK1nwZBK/Ji0XnfgqJ5OYaEc/My6XKGf7hUr7HCg10FnF024ez2zYd843H0aB5dZXo0RlukCbnFoj0Q1uwq3rUwZvpi1DuKXtKG0+xXXn2Jv4r7KihOBEUT9UhBAaaFYjHY+S0gDpNZ4Ax6MUwMUrrQArPLUsGpsJ4Ns1X0MhNcgoSgoHHIB+sRguKKYeFmbOGsXviKKzNWO23vJezG4v4NoWtEWpaXpnZfRw+3CXZpQoRdgmGT08f2+pr9HRWHjWnWV49W4r0GnHbZhBPc6sQT0toyZnbrQZCJmx/HDAKCdkRg0CbYLWhMaEBgeDvReOonvMGvL+HEqTrPCN9dUESIHUYQ+U2GkCtPWDqiqdMiKz7bHQ0Go+x+H5XWZ3iKl5541pc85fD2qMYOShvwM+8WvTQruYXvPt1Pvstni8BwdiJpC8vXpH5vwi9aOcv7t3YdPezGzvR2sWm7CM9oA5crF85n4W6jTq760UK+BelY4crPg6Pvfe973/zoRz86PngyJsLAEQW+jLQEnM+2GQmF6EHwddNRH/X5Vljd8JFGf0IzG1DzoiwnPtsER13tlbmZ8SWoq072E5qFeTC3rrppRzQhN0+EA2HBRuE9heOIOQZv9l8/4fFq4dMERYRoUoRcEzUnJoJWV5or3O0i+keF8IILr08uXIUxmJ3RUcG1mR3JuRWD+Xl3TOWNP/sF75pTaEdlRfdaEZNp6zaDoBD3hSIDGkeYeArsLExg2Mm4cDsS39K4+K1h46p+tJUuLmzc1HvGVka+3ooQABaJl6TsKPBCGwsJXRxHCAgvHgmZjlhpFPoC/xYXTuFTW/3RFJsr5erm5hiCIYyG4gyrvgYlDDyUc7VrHh2ZPLYiKMT7ARrjI+DZjNR1JAxe/ddXeLxa+DRBgTCcsMmPWMKYaIbi1dV2xje8CeuWOFj3eDDVD7Y4/KS5iWtlGJTtwDcANArqdv90l9XfNwBUcV8lEiJ2VEcTO69d1c7rqOGoQq31ebnPkbsGdT3qyGGh+YEU9bkWxpH49k9473DWmXFjmE67Of4Nx87trYjzOUOkcjTZTp6vJy0kOzUBQii6KnWW922Lx1e5jUf5Owwf9WsTzhPv4rU/qxPuzSmB53hBmNGI4EeoGS8hSOhLE/RsMgS5a1FGaGNzzAQreOEqfFX3MoJiTigm4+XZARCUi6ClI6p8dXPKq3trWP+3hvrgq18/4SDfrur8SqW2u1rgrs5Y9RnD7Dp2W7sT674dyMIgSNxeOPNyaMBT45XTHHw3gPHsYGkUruQcY/xegqMHjQJeBIX24ly4noVHhZM/xlN7xXvcG5b+9Ksepxy95MuLfvKN00IiVAhGApAWQfDJJ2iCEbwj440/4ROeVS2/ULl4Trw21RFOfN1wmDd5yggMuLKvEBDm0dw4ThGCBLZNwFHR/HfjpX3911d4vFr4VEERoTEPI5OzI+nsc2kElq+OfJNhV20yWJfVNQks5OpyZ8RvEt4KtbvXx1D1aWFQnS1QrycZrWgHQosYM1nU7t0xv/p2UDchdhljZDk3RmMNvnocLcSRg+3CGRkzOn5oy+mDZoIeVFy7GYc2fEwZvsG/JdRm0k+bCaeyo8MhSIKtf+Pg1a09GASbYxVBoYxgFbr1sDvTqLja1cdbobrV11fpQv2Gv7zcVZvqK2dPIijMlzT+pP2YV7YXRxL2JwZM/MmzUdBECBG2isa/cQuPVwufLigQCsEZ5JzdSGRM4xzoisktgTOexcGYZzelrjMa+baBtZmKTgPhmnThPT5G2CEGj6HmpMrTpwWPERgdCQT3/3ZEBkl4ubq08AnC2sMzfAk7Y6R2l9c4tNFPgsItBoZzu+HTbDShnfSEu2897NBolKYBRoICDjMuPb26Vz780VVcvdpG62MSxqKOfpWrz9UODGM353Za+WiKFubfYpuCQv1b3OyvvmYeONFBfk5815enPq/MfBHIcCQkXHFb/AQcQeF4aCPrOOU4QkPEJ2wZ+AKc4IXXxCN8XiV8d0FhoBG/Qc+JELd7YnaPbeyK1E3XZ6SyHZmgIDg88xUqc9YT10Z7DqyIfTUJypt08dLCmLpJlOcMymnjKEE1pu04SjDMsQd4vksdtQO6kbCjY6DgaNtuupkTk9lJncnDWTv11RXKBw8zsl1YPH6gxvgZLbv1QAsLzg5Nxc2YGV2MJ5yEj/BgnvmDaCd/wkHICdEzjcKuzOhHOFhsBN4UFBtkfe/8e9LRYeIU3YNvDpo739LQGpovAgPOeMP3KY6FQribC3HCg0B0VKQJgjv7iBb1t8N7xvMedT9EUOyJ2GkEswvaif30OQK7cnLeJqVNkB2aFGfRz1OvLU52AJOWR2RxYU6f4OSqM+spl+aUExKOEhjWUcIPqRAIHtdQNTGHe3OCIWEVM+nPuGIGYfDn+MUJgXALZ3iEc7DstH69inDwIyh2LJ8mE04cGwjjJgHCRsHICV44iefD4UvD4O3wQOjkj3r6FOYsIOd5O65x08DQi6Bz62PcXG21L12/R8Ydf2oHlr4s9uZH2LxVD17Nkc2LzYGGa6Pg8aIbHkcltx7G49fH3OR4ss22hE/Yn2wy4M4+9njqt/COob1L1YcJigZ0FiIyr4yLOaurzEJz7LAQLEzXTs7fLMnqW6AszYSERyteIFIBGYicxRE9eFFKO7Bz0pw8jKG+uKMPjyFNrOMCAeSOnLbgbEnTsaO7F1ePEIlxgh9sMPUV44lf+XBWXjt5u35lYBIA7vAtIoZQGhcHZwwJXx+LyQdHGyG4ufp9Rhgu4WPXNbdpQJ39HUXs3LStM6d9dDorP8ub4402BDWPJxIacxFrg/7xmE0Nb/72t789Ni/HXxoRYcEGQePDO4QJbdH7FoLbpkPI22TAnH3AdeK242dj+ci8dxcUTQZCGzwXowi5iIKh7dyEBK2CwOCo5/IY/QgTahxP9XccsXjBAM/xgPpKelvQNBILi8HPpDnO2Hm1ZRNhIKQheB3IvkCj4dVhfGRcZEfARODzxY1pLsJwaDzVF57lbZpU7xj0oFNw1ecsKIzKLuLsa0FxbBeER8YzAlTbieNRcdA8vD4ybJz65AgKO615tHjMFzUe/l5xms+ctjnxfLAquwobZ+3Q1HwmJNAKDnMRazPnGmxCwaK3YRAytAQCjeZrDvxGCKGN/2gU3onY9Bih2V7AnH2AGW5n4dV4Pir/YYIiwu8wwsesBqYOYuRMgsVIBbVgGXwY6bzoY7zEMDQNC1vcEYQnSNyQmADwCAnM5kzIhuFNgjhtBFxGJdKcEHCe196u68xIW3BWpvZiUowDZyEXo+gHY8RMxsLJb1zq8qUrm2l5fG1LF+58beFjjISXXYtgwIwEIGdMNC0Lz3uKBC1cgisE61Fuwp1xfZx5/Uab8LBDexdiHOjKIEg49KYiG4W2yrVrHNG6vt8aV3W0R8t4Eszmu3x5k27iyuRzjsU0W3mEhWMo3rG50C5sSOxE+BUP+nFdxm7zggfhMPsAM/zOwrfG9RFlHyIoktYxhpCPIAhtx2cksptbvNJuNmgWCEtSC+026jmCEBzOiSbCAkJ46p2FYoJMHPuFhS/suBBTTAInEOaEqQ/m9PCOgRpPbWZ+YxM23jnm2Xfx6gZPWH/BwJgEgKMHxiMwCDjOLYgXnxYeJqVZBCN8gncUPOBPcHcYvjvUpTGUL03wERTd0kxBYZ6nRhGNo5U0D568t1w4qg8HXtzcJ/zlmW95ynab6nuubTPCI2kUBJqNjbbBOE+Q2PwcWx1JbHZuq4wTXP3UB7zr6yx8a1wfUfZQQWHQTViM0CJrUmY5gmijjsXsuIDwEcriR3z2CxqHhY9pqHN2Gx6TOWJEdP3oI8IXytPX9OqGV/EdNo5walJK77D6O9z1SgfvLFQHnJw0RwPyqhNTUmUJRo6g6KMwZ3uGVu2jjXgww+8WPA7gb/wBK7oGVzp8ayotX534QlkaBXzVYTQm8HtjkqDQjlOnfnZYX2fhbCde2kInGMAy/66l8Zx8eeEMZnFvKRg1wUhQOHrYtBwzaBg0C2NjpPcil+B2xMr4HO9NXPShz+gjXp54dY/MD/zzMEFhAIjYAMXLi7jSOfWahFkv4imf8NSNUMGWVk+bYAuDK7/4DMXv9eDWhzGU3uEV3F2vdPQ4C9UBLxcdHZNcj7KtCKdG4frUjuwI0gvAaAlWMMPzFjzq/yoMZviB3RzNNtUTKuc5R8e+tDRnFhZBYWOwa8+jR23Df4ezvx2vf23E8/GQ+spsVoSFfOlwLQ5HV/SM6fIICsdaOLN50R76j2GOU+xhBLhxsl+kOYETncJNKI/gmlqNfvhw3mN77/TDBEWDNkhxgyrvbIDyuAhVGHFqK9+E8Ygkf07srAem+oWzTe0i9K0hWHz1m5DSO6z+Dne90sE7C9UBJxcejmXOvCzpVFk7L4ch2XcYfV3RERRgoEN0CWb43YJH/V+FZzCbz9mmvoRcoV3XdaIFZP4ZldMWLTgCg4sWE86OHxUv/qh7Nu6JqzrxSjQTyuOVS7N70SrAQ182CTgzYnor4chMaBMOBHf2Cppetzvg1Xe4BR/M5q0yfYnzH+0eJigMwqBdbVHbDHJPyh6gdMSIYFPdUx5cDISwwVT/LN6ECoNdOyGY9/j6qE0TVHqH1d/hrlc6eGehOuDkpDm7FhXWewlHD8zI2YkJCaqtXc1DLG2iA1jBDD/p4B5APuNPMIIv3XxOcNWrv9KOktlUtDMOeQSE8dipOfOXq+0OKz8L1d3jrv2sP+tVH16TfwgJGoW6eJPwdkTyOpZ2xC7hFa2jMbubJ9+OiPM2D7zoNPusL+X1X3iG78T9veIPExQGZ5GbYMTp+XED3KH6fAIFATgwyksFTMuoDdjsEmDKU64NAZVRU7728uVJbxzuSe8JKr3DK5i7Xum3JlYd8HLi8uxaNAfXo35ardsNTOo2CEPaoeVrgwaNP5jheQse9f9WGBwhp7/itdt1KjeXPpCjAZlLCwsfsVsxZiYoaj9pEuxbQu33uM/wDJa6lWs7aejYx0ahjs0R7eHr+t6xj4ZBmNOW2FwICjYKZW7muDNBIX/jKW/jfQD4wD8PExQNzqL07sHAIi4Cb1+5OpgDk3gwhJjidklGO4+HpLW38NX1Vt6E6Ks8woMhydWnK1MSncrnztoOm3GqyY7wheU3DvnlTVybG/XOfPB2eFZX3ltOOTi56qdRoA81N2OmWyEWd4/GGM88HNP+IwVFuKJd+JYnnZfX2MyNq3A3BBadV7nsLnZo72XcYOW0B/tznLbNS3ikJYAnbzr9zL60rX6CQjlDuwdWjh7eUxDW5ohmAXeCgoZHU/L24q2jx+x/xjfes+wj4g8VFBH/LGygET+iW/jy3D97kmxRWwDUOuqcXRPDED5euDEOmRRvJEhmUp2wIGCc2TEWdVVInSXVCSBCBV760vd08sFQZlHBCUOI81Pyh7c24tqIcxO++K5T3lk48QnWVT27lR/VxYyOHhYY52EPoxlBgZYEBRiNAb78hLv73elZd8av6p31MdsVrz36ubp25U3goTWhYZ5pGl5s2ii2C84O53zURh1wm0d1wjN6zLo7T5m8YIPjXQ6DJueTeEKA5sNO5Ira3NDqzIXNi4DwytdrzQQfeMGc8PeYpJ/tniYoEMiCtIARyYtMhJUmlamizqgs3o4jpLa39K4AGbtoC4QLpgLHBHm9SW31D2RoF87wrqoICn3ELFREjGgSCSAuZkpwyVP/bJEpa2KbaO3l8XNiyxd+yh+IfPvnqq5i9PGjKJjTe4quQam/jJxogTGzUewFsmHPfmd815vp6s28xi7fNiYAACAASURBVB8NZtmO1x79CApzawHBNUFhgzB/LSwwchte6eZrjlkfM30rnvUl1AYcTh82Mm94OBoRDRe/eu9DSBPmNAqakflgmyC4zZv54sDj4R78xrHDo8ET/zxNUJg4i7SfOfN4ihbgoUpf5xEGpDZhYRIwEzWOek2Q0CpoGRa3V4os0dRWwoQa7oGLl3AEisk1GUI7lPf5PuYhdLxHsKgIDvhgXMKpCaydPH0FyyQrm/Wa4Dmns1z9M7/blZ5hfcHVB0eu2nxpizbqEY4e+fj+xT8AiiGvFknwtN2ufjeuu+4uL137q7D+0BDNCXmLCq4EhTkyLo/uvK/JfQq+uTFHzdMce/MFxsQrmIWV1adQmfackCabRkHzcRRhj3Dk9f2Nl5uMmXiKQGejIPA8kOsdBTi8/oJf3zucuDwj/jRBgUBNqji7goXOEEqF9vKN+obZLVDCgmaAaRw9SHQGL0LBwsYY8n3ia2K8WnTsYM/QD8Lrx4SA5zzJDsIwqA6hREUkfEy69p5E0zwwbH00qZMBwQ82+Orkqi//La9eXtviO1TmdykYxWhPNIcWEvwJU+8s0GGfheE48QzX+gjn2X84z/GW91YYzKuwvuCzBQWN8ExQgKX+FczK4WpOhI3xrXEry1cfrOnkTxh4zPGDwx8EnaOTDcvmZJPyq2XmhmbbO5GvGsVg9LOJjKmakOogtEXu6GFH5AgIuyJ1jjbAuWO301jgtApagAnCVHZYzsLx1aSJonFYRIQLptF/dgh1MVHMr4yj4Zhs9g4PaEww4UUo2UEIMMKD9sMuYCeZQsg49vik66eyszD6RJerEJ60LozHUEu76lYArdgu7FxsF567c2f9lXfVb/nVOwB9+yfc1Jl0VLd21bkKg6cNIWxuaRRoaNERFI4exmOn5oI14+XNEMwpKNTfeB0Ah11JfV7bYFWn9soaL03UFSlHGOBD84AH2YnMkSMIfrL5GAfB7TP0vvYFr/7gV7z+ZzhxeUb8aRrFnEgLnhpHbaNBWJQMkwQFgUFVY9j0JNb53Gs9k0QIOPthKkS1qD1yMTHOhdRytyZ9tqxPjGhSOG1yypqY8mgenuViWIuPgGAHoH3YTTCFOKGFMTC63XG+6gNTf8GOIWKSwlmnujsMb8+DjY1gwIwtJBqF3+IkxKi9XcPVx1kI5lnf5dcGfaIfgcuWxLdwqle7jftOR2PtCAoaJBqbH4uOJkeLdIPQ+MJT2w2vtDpwCl9pbuNV/9rBofriwapO7ZWBbdy0V8ZJDo/AmYbqKEzbw7OEAg0Zj9i4bHY+4rMRceDVH/yK1/8MjwZP/PNhgmIOWjzCII6FSJ0mcXkLkobB+ENYeA+AuAhOe3BUsDCV2e21t6jdkLA92EktEpoH7cTExigmek+Ishi+UJ2repjK7oGZHZksWEKOzQPDYyKLllZCeNhxLAY4bqePaKHv8JQf84azNNoZO3uOYxNjHy2LI8TsZsbuxqfbELCCAT4Y9Vt/E4doMMO0JTgQvL2TmXVmfMOb/Ylz6oubHwId3mkUhAZBQTtM4AVTqK1w8lXls69ZfhZXd+IdThM+XMHmOfOIz9jSOPT33gO98YGraTxIKMijKXtqTwsh4LftKLyCfwB9sT9PFxSIg/kwXpNj8lpUHReUyWuxIK62mFa+OBgWpDoYTtpxArx8jNDkBEf7M1+7HdZefjBZvzENAUJIOK+ygjvCZPtwfHFkoH4ydLmBga++heFefParjr4I1Y5mnnB39CCc7FyEE+2rBQZGcNFFHBxjyInLO6OBvDleMGo/8Ztx5bNP6bx6HLicOXOEojmoY3e2wMwdQdEOPHFTb+IFP2mwqxfOb4XReYdg5LQHVx1xIQ2YRiFtHgkNmjHblt/QIMTZI8yBjUSeDcStFA2YMwZww2/2Wd+vEj5MUDQ5O4wIO0QAeQgVwQrLFwav9hGzOtrz8oNVm7Nw9jFhFt/hGYz6mn1rV90mVzlBxujqrEoTcCQiOByd7KK0EEIEMzFCWizaWIzgncGlaTFWguF6FKNyhJIftCGgqL9pFGBEG+PnExjC6feCKQ2GuLqNW9iYd1h/tY/uta8+2sD797///XGUoy0SDrRBNGEQpDm2ccQ34EUfuE06zfzmojo7nGPZcXVzjQdsfTsemztpmwMjMgHNuE540zTddJgDmrD6js/KaEtcNAknsF7VPU1QIEreJIhjKnGEQ8TJDE3UJG7tIvQMwTtLz/aV77rlC8Nxh8o4ITzywQo3dSqrrsXCluH8atE7ZrF32KXsOgQAqzobjJ0JY9mt7Lxg0VZ8Zu4xkp/vd0bmqL1+Q5PhjKrryKPPvVjloQNtjRbEi8ur7g5ro444J77pUlod8cZeflqhtjQ+RkwfsMGbIfoPf/jD8W8Hf/e73x1jcM3Lo0X9CYvrJ18fpYW5mTfj4bdDeOojGLVpTI4R5ku+o69x2Azg+ctf/vKwrRDi5ti8mF9Hjmk7Al+/E3b4vlr4MEGxCV06IuxwTmrEb2JKgyGurbIEiTxOOOPqz/zgaR8+e3KUBecs3HiXnnXLE+qnMPzhrV9thBYIYTGdOpjTorXAMRUNxK5KC8GYzsWOLm4F/AIYQy5VFqNybmS8StWu8zEcwM2HCxzhUr64vDmuGQdfWp3cjJdXGKzoXtvooJzwY4y1M9OiPKqjHRmDHVmacCT47MhoBg4YEw5Y9Vc8PArL32Gwdogu8tTfDg0tfMZzTt2OTTQh9iMaBqFnbgh/Rw/HTe8oOkqBH7/ox9he1b2EoECkFlUTGcGaqAhZeWHEFYLBiStv8ksr35MTXHXOfP28FU5cJzM3JowlHgzp6k2c9D+dtHoY0VWssy0mc7PhKTCr+k9/+tPj4RX7hN/PdG1K47C4qMJc/dZXdAm/xj1xrE1hAqa65U98Z1y92V99gaMtRxMi0OzCOeV2ajtxjnZFfUcLbcNfH+EhnOnaFs56b8UbHzyiBxiNR1xZR4/g17djpZsac2BsbkIYuH1e7taDMbMHV5sXwXhV9zBB0URFXOkZ35OjbPqI1AKqfRMjzTUhiCxPWlzIB7N07dQxwTO/suBWNkN1HuHDa4fwOvPqyUePmDY8CQU/Kuw87+tRR5fOxD/72c8Oq7t/VvynP/3p0EhcpxIadnA793TGetZ/fSoPF3EOPWon5KOlELzyhNqXBjdnt3WEItSo524HCAQCkPbkFke+p/3sOI5H4RUdwQ12OAT/lrD2wYO7PtzECIMprB+Cm0CgKWhHQ2Rgdpw0N8ZDq4O3Y6O67FE0CgbO77SNIkIinDg/4+UVKmuSmgAT0+SYsG48mnD1tOPAycWY0sFt99Gm8srqN1yE5e1w1vmSuL7P/O5vptWPcYXS6GMHpj04alhorhE5d/iOI66Q7WYWHeOaRUa9921CNhAwXB2zyrt5iUb6jx5C/VkI+jYf4vLUm23CW94U9uWDxTUv4o4VXs96jm7HdWNjkf3Xf/3XsfPSnFw7sl3YweEAnoUqXlpec3N0csef8BMGU1gfgVJubLzxM8A6fuiX8GW01IagcEXtetRzenYLGpJbHVf/8r7z16MRu0lD8OI7rEzIYSDWY4yI4CS6vCS7CTIhyjj5dsj6lOc6TT1OPaotL64eHIT3+I3356av+ryCN5kSY+aNDZMSCN6NMGaiG2f3tbgsfu8oUt/R0W5nB1dGLbZbM5qyd7jas+vJ84aFaoy22mjLh7/54uHXHFZWnnR1jI8TyguWPPgwyLLBmM8Mq77Xgae65rzboea2eQavvqPj0dnJn8p3WPsd6ktebo5HfD7hDk9jICi8o0BHwtpx0ZXp//7v/x7j+Coovl2EiNhkzHh5hSZA3IQIvQVwtvO4ylnOTsjij/mpbHYzj6uo23YiV2Z2SVdOzoGMYBgqFRAzWVBecppwwqLJ30zxVjp8vzS86uNTcGuHloSFkKaA4VLTp6DAnGhid7ZzaYOR+drrM3joQiOxA7pW7faF6m/BEiCOBD79Zx/pB2XAmg68PPjgmrPoXn/mgOeyUZhLzliVefVqJ85Jw8UYlDNyCsGMPtGxNjusfIe1PwvV5YT60md+3nqgH00NbdCQMdNR0BwReASwT8/R9n/+53+OdzbgNoZwgsOruqfZKJoYUpgWYZdzdeSaiZppZ2QpFjpjY1JnPnfTmCY1VX3nQULBlaD3A87m4PmCz+S4giSITEz9xtRNfPk7bBLfK9z9la6/yagWinI7sKfqrt+o5R09CFX5vrj0rYezcMwIzl6syhIgFr40JwTTwzHHGJ9M20Gp0AxzvA/n7J6OP4SM+uDnwEhICYsTHrxxWPDsEYSbXZf3iIm25NbAnBKG3h7QfuDKf46giK5X4aS3MahXXqG8aGTseIujufVRmHx86lGd9yBo6CYET2bM/E4/uEJMhMQsEXbGy9uhNpjIYmexpxUQGCS2s7WFT1pjWFdLmAjRnc09OjIZhILzNobyqs9uSPVm8CNQMCJ1ek5+DA1Hk69s+43/bD/je0z3pHefpVsUc4ERqmBjPHQxVr+cRIXn7PwEK9p5l+CaFbxgJBQac2F9oYO4UBkXPmA4GuiLAKKpEVgWNMFtTrq+ZVy1k9IYCAVtg0PDsDHUJ82RJvmLX/zi+Hk/u7F3FXZj3/v86le/Oj7uY4w1dniBKeSDG80PpE/+VO8q3O2rd5Yvj6bF5mNsrkYJCiHB6R0F3PEzQWFe0AdN2GR6CBed60Ofr+oeplEYdAOfE2jw0pVXB4HlYxwOUzH4OE5Q01iHff1JGCCs87LFgalIawLDWwI7G1Xbbmc39cLP2wJGMYLGuwNwHU84/TPeOapYSBbfdCYNzkI4YujS6jYe+U0wmOpy1RWvfMIsT71oIcyjiTrgWRDO6BkQw5PmwJiJDnbk1HQChBZF+7LQ7HRg1Q+YfOk5T+J8eOwQnOmkJy3Q1I7JSGr3p3WwfRAe5oE9xbkdrrQP9Mvpy69tGw+YNgYLzLi9s/DRHTfx1t5Yolf0nHjKmy58wRFXt3FLlzdhzPbi6nAEBe1He/Ycmi2e6qMwY/APownVjnQ0CXzNqFnft/a78fjo9MMERQQXNnhhaYQp3UQJeQuQgPACz3mOVKYNWOy+FLWLYTqCgHWc1mFiLAa7KmFBY/BQx29IMiYxkgntUPK6ksJcJLvHMpjT+dfCs0OaQO8V4DyZBY7aEWryMSkbCLxjVm2qV3t15U0ayOOjRbRSp3oxgTLwWxTSHJXcsczCYszsWw/jwLwWrHwCVpvZHj7t8uLKJ07S93j41D68hQScBcROwm7k4Ri1HL39VkPzxubkaGlDUIcz/9qi7xYUcObRZfryo/0cw6T3pHP5kwZzDGfx2hsHnoQDXI2JEHREo8XiJ0cQmhAbjA0rQcEOp+/m+57+z3D6iLyHC4o9QQjCCU2mXYIxUjwGRmyE9YtNpDLV1UdNjhoYn0pnEbt2Yr9gc/BRlDp+ycqxpR9roVHQSDAiLcM5kho4NQqLnPAxidpRf+2C2lCltbM7Y2CTa7ckJBIUxjMnOeYpNDbjjRkKZxt5XPSqrHyhMrDQB614DtMRlHbofhxFvnHYwdFHPsYFJ8FQf8YPFtgx6QH4jT/gvOVrGt7SxYXGh340Q/OJ7gSDndki+8lPfnJoSYSdYyN1nZAhQGwejR++HCECZrCjX2NSr7xZR1756jR+daaTPvPamg98mEbBiIkf8S78ab0M8Y7FNihjwYc2KBog4zw38aivicMrxd9NUDRwISdEmNTp0i0ENgYMwt5AfSUEMDvDnLMgVZQGwZpsci0WGkGMYVGo696d2kfFs2hoJD6UMjn6VD+c4CXdwsHEdmfaCebUB2Zw22KnsCMy7FHtCRnHJQwcszXOY8DfMgL4XEyJBvK0s3Ckp1ePU4efZeIcjcJuRrj62f5sFGwGBAhBYcwJCv1gbg78NCHwJy2OChd/1LvVw1Ndfel3jkGf0UIcHWwcdl+2FYZRmiCNkhD59a9/fZz10R5fEDAWnMWpnfbBhHo46nPmw0M6XMKhsHYNv/RVCB/4cnjGBkMAOnrY8MwBHrbRmBeGWvPB/vadFhSb4AjMzXzpCC/exBEeFiBiYgQqNfVZaDJoDBiIwYhmgNFJb20s7hhCWxoGoUOymzgTZlJpMvUXTqXhVN5kJDiCjykxJ1gEmd3BjsI79jiD2x0ZXBMgYDdWsMGNJtEl5hXmG0t4CLWfbfXLmOv4RCBiQI5woxXZiRnNekcRzMapr+AeDcfuX/qecI6vPsrTd+MUN9fC6ilzTHFE7OhhsVlgBJwnz+iNH8yrMuO3edgIeMcAbc0PvjBnxsfBQx8JlMYt5OHCl1b/La8uWG5j4GUc+MOxl/bQv0xw3HJsMjcMmbRjthYCsU0rXPQHDv+q7mEaRcQ9G7C8TRQEN4G8tlwTV111MIv21Rcqn7si5jN5vHxpbcDmimsrntevvGBLg13/tT+ADCFH6Lii834BAzsCOC4RTnZBxxbqJi+fhoJhnGUtCv2FV32Gh7A8/TcucXhxzvBuOwgL9/JTo7AbMxxScRMU4BlzY2v8wpy4eo9yjSO49akPc8rXH42Omm4hqUd7s+DNo4XVOwu4aYf2tDmbhuMhetP8aFlCR0cbDA3EgrWAHR/RHj2jB3ji0WWG8qtXvLpw0GeCwrzS5NDb8c+zenxAAya08YEbOXYlmp4849RfsKPPo+j/aDgPExQN9NYwAs3JabEoA8fi4Ks7Q+Xa1kY4YdU2hg3mhDHjs624spk3+xHfrvqYHiNjTkyK+R0VaEuY125oV3RsoCWph9EIH2OaThrc+oaPPEciuxR4XvzRYjiGQW8rGHyd7anE2iRkwOKE4Tv7nPGj4vhTG3VmvdK3ho1BfXFwCQSCAv4cDZBgNW5X2+jFNRZt6k9cPYsXHAKEPQvtCVS2J4vWoqb9icsnvC1sAsScgTMdmPqbtFdHnn4IM3PJEdSOHozHtDqCwg2dWw9arT5pPXiBDc0xmquPOZaj4AX/PE1QxCSIP/1koEmvXadJayILwW2C6wPMXJOywwl/xoNXXjDrb4ez3uzTeZqKSqUmIBybqKkECBuIhc+20jncrkOAYEoLXT85Z15neLup7yQwI2eBgUMwERQYV7spbMPXOIILZ27TZKYbl7D8T7Wp3gz1WzpaWuTO9V2Pwt9ioh0651t89UUjSPBpzzcmoXLwcugHDqFAoLpK149d3gImPNB/aiCOBgSOOYt24Wz84Dt6WPwcgcwWRrjRIL1lIYxoEfIYOs2LTcGR0Pxz8J30aB6Owhf781RBEaM0CdGmyS+NgBFVaPIwhHhem7z6+Q07mDus3g6vcKzfHYYDOMVj7MkI4rQI52kCgYGU8KBmu3e3W9m1MDSmY8TF5AQNmwjG9KzaNahdkcO8BAhG9waFANEPHKNH+MJNvIVQ+VUYHSrfdLo1DU51g2kuGaLTKAhLC8yC9BJ3Cgr4wlvbMw+/SXtxedrk5BEC2Z9cVzquEbQJD/QnQBwxCHS0J7y1oUEQLIQMZ/7YzxyXaD+EHo2F3YXAo214V0LTcSQ0h1zjiB7wfFX3NEERkd5ivMkIMYAQY/Hi4AQrxjuD+akJaLJ2OGFNGOXvsPby4QVPzB2DT3zVqT7clVXXIrGrsYE4plBbaR+0Ced29gnnYs/WLSRCgZrNqKaN8zHG5eojXOXVlzC6FVZvhspmeTDvDcGoTfCM1QMyY+QsTONR7mo7QaGsNsIzD7b8ySPyon9tGpt6OfVoH9k/CAe4ENa0B1oBYzFhYg48+rP4aSroTrgR9ASFtv3Tn96NEBCMszYFLtpHDzi9qnuqoECoM99iMalNfESUh7GolPJqL19afU78zDcpOzyrG7zqVqc+zia1OvAJt8YjPfPFEyS1E6onrF391Z7mQL116+GRGuOdReZ62S0IrcKn2hYYoYExMb++Jlz985w+wvcqrL4wfKPNraG21Q0OvIynWw8GQVqR8bO3lN+8ah8uG4/ygz3TMx5tM35Hmzmn+gFfO/xGc0NL2gIh4Pqe8CYUGFEd9Wh/hB4B4tbDTRiNgoBR/vVXuMdtQozwVhgzNmEtAhPGGMjnqmPSlJuwrsD0oa2y+tNuMsWMx1gz1G7WEVcuDGb1q1f+DmvXeNRvrDNUT1uhfMKPF5dfXWMXDydjs3BY0F0XskW4fVGPmmyXw7xesVKNqdBestoNqdKEjCOL6163BtRo/Qa/cTaOxhs+pas3xw+30mflwaxOfcLd9yKunjk7uAVmEfcC9Sj4dgPQ/i089FOd8J401Lb86KsNJ5x5wap/IR5ES1ez4o4ejoLoSWB7Few4wxDryt4DQMZNws81qSMMF07RIxxmX68Sf5hGsQlq8OVFiB022QkHqjKVk3S2W1Lp3I07y/s+gER25mMcskgIE6ohCQ8Wpw9OOhzCI+ZQJk86pti41bb8YNSH9Mw7Oh2azGynv/oRr//6qLwy9OB3G/hymNFXo564+0qUtsAREM7CXgUycqIXOIQqWsrX1q0JOwcVWn3nap6NAINToX0AZqE2TrjAr3Hpr7g60VacU78xTBizjXxpbR2bzClHfbeYCLB+oEd+bcUnDeWDJS9XHtjwCL9oXN9XcM7yGwdYBG+3Hr4ZwpPoRgi7sqZFMMTSLBxLfH9EGBIe8jhw9NO4wH9V9zRB0cQKMRXJa+djFHLu9uWdKzMfdJkIwsAVF5WPSufjJ5JaG9b/uSsifBNdKM/ExEBNkP7Lb8JmaOKqo16Tq30wZv3ytcmXdxaCVz0MbRwxtvrKJnz4MPYZu12M+mtHAwfj+lAOk/phV4JX+/COCcHzpoCgtSB5xlJwGenslo4zbmEIkH6LguCZH3SBwwnrI3zLV2Ycs7xxyRM3XhsDHDgaRTcDFuB8RxHcYIDP67e8cJh9KwuHGdZmwykfrGBrh1e57A7quVExF+gNV4ZZ2oa3LvLQEp962u169DttzGxyDip+yzzlNQkzrKyF4ThBdSapEdrjGUzCEq0Otc7Z28+4I7qzq12T9kHrMIFNqDAfMyq3S4JV38qky5O/HZzlxyTC0pikMZWnvDry+OoVlw6evqV59/kWcHnqT6cvDjOigRerjJoYVZmF7bbDTvZv//Zvh6Yhfwqe+ta/eE69aESAgGmx0tg8JCOEzI0FkgBRZnckQBxhwh3+aSPBn2MX15+Q16+FRSBxjkcescmnabiRmC5YwQlWY5v5s6xycNGElzfrB/tsDqsrJNgIAA6tCGc8ClefEbBbdBVqrvBz33p8p42ZEbsJbYKEZ149bXiMRaNAfAY5r9dYjgkDqqcFgRmduancLNAY1uMiah2GNfmcCdafyZzeGwaGJruVnQuDu9fG4BlGtcuFM7hgYip48tLywa9edeRX1viqJx1OwVA3GN35K6tt+MzQwqVRGYczL40LDIuK0Qyz+qbA/T4HHq8OuKX1XVzZdPLhGh7q+rKW9uEaFx31R522CAgR88IQqdwR0W5KA9mPycJj0kXbBIWbHfzAdT0ZfpOG4vInvEn7ymZ541XvrG7w9/hLw5kzXgKTQ2d0x0uObzY0gqKjBxrh195REBhcMMNT36/qnnr0QCDO7oOIDFgWsw+dXP0RDvIQFvOxjFPdfAzmU16ah8/TCZKYxuSL51uYdjvndLskhnQ+N9l2Mmd2D2UsPAvBxNtV4WXxxhxzFxI30TGhftUlSCrTbuMRPoXhjQ7BEq88JopW6ntfAW+3GjQIO5lyNgqCE80IXAsbjvABj9O++OxH3h5PdVtQ6hhfNBanpXWd6HjoKpegIjBog7QDgo1thGcDoXoT3Nq2WBx3EhTmAxxO+6lRwCm8hNGnPDjufOkrf1Zf3hyzNDzl6Y9AcATGh+wSNh1aBB51PO6rUVeobp0SpPjPTx581SjGroSgc8Ka0B2q0yRgPI+NSF8LwW7CEIfRaQ3UX5+a0zYQ345G/WOkM5kTNrhNsDhnojn51HwLyURr73xuJ+tprgm3EDE8BiZgMDghgsG1h5c+g0lQ6INvAei7Mcqb+drO+urJqz48y6sffcGRoEQTxkyqL8dAyXbh+bKHPRg6Gsz2wQz+0XgIETgmXNQxL7x4Hozg1L5QHbRAXzcyNgE0dltjfhN0Puwyx/IY+WgVtA/lXk9yXmn2ECv4xqKP+o9mEzd51avurB+syqqvjrw5h9LNnZCG4N8hOPYRyBa/z+RpuG6b2NfccAgJbZsejQOv+afShAcXL8y+w+vVwodqFIi8fUTYIUKUZ1LcdjhaIKi4nQdRCQaahclitLSDmijMYyIsZtqCcr7+S5+F1al/6RgDg9sh03Aw7PxOgMpth7Tr6Zs2Q4BYrISI9uDqFyPk9GGxJUzCoX7DRViZeHSSB56QQPNTd4QF4yVjJgfPfguBERhd1NdH/cAL3M2ks9/6n6H22s68xghWXl59gDm9turBy6KxiAgPePuHRl6ZEn5oPAXFNGbO/sHOhT/41Qkn6fCqLLxKn4XayFdXHA3MoUdg7Gfm3QZCc8KL8Kbhsp05OtF48TGBaGPD1z7a0y6Y9Rs+jefVwqcJigiDUBYPxqH+W2wmg6OeWoh2JXUYLREdc1FzMZNFyxCKKSbxY4xbwxZSjKZ/8DhljiF2SAIhJte/Hc9O6LxKfcb0FjIhQhOxszirw9ECAWuOHfyYUFmMqY64skLl0hgTs3pjwGaDZpzjFOGKjoSp/oxHO15ce7BnfOKjrzNf/bOye/L0DxafE6cZop8jnyOUOeYIZHMMR272VZ58cWXRSD9zzNK7bW1m/ozXBvzwxps0WtqtPA6fEgQEtiMTG5ur615h0o5pFY6ItA88Ecz6g8scz1Hhhf48TFA00FtDNEAkxDahBIFJmO2jU8RUTx2+SRKnJmO22bY2t4bg5cEKNzBz8qZTpn9CgDBzBiXAWOwJC4xPiDgiuXZ03u4oYzeltTD2WdDg1RQyZQAAIABJREFU6BcOhBIHvrEZd0wPB0cMlnTHJUyZRkFQUIdpFQzBaArebC8Nbn2J58EuvsNoUh0hf+V2+9K1g0c4GCNBi2YcQZG9woI0XvW52gvBzInLM9ZgN27p2e6eeH1oAw5caQo2CPgrN/cdLdhTGDMZ5tnTzDG7kSMK7cLTekcP7SZe0vXVmF4pfJqgiPBNWoyIeAgm30SbmOo2MdIRVt5sWzy4nxPWf6EJAxcu8rhwCsf6DV/1lLFn2HEYsGhEDKZ2SOdwC6BjDUHirM6+QODwVFU7rHM7WPrkLCjMZ/fyjiIbRRoFTYNBDS7oqS0Px+g743BtrMV32PhmfvgcSK0/s96Ow2F6sKnsFh/HbtHjK0LWojMWDixt9S2eE5dnnMGeY1Z2jw9efWgLrrkghB0z4K0c/ftRJbYYNjZaJ4HtaGKO2S/Mi6OzudWucYAtXV+N6ZXChwmKq0FFgB02mTOMeZtQ6RZneeDURt5s08Ttvm5JT/hn9ZXPficThqcdXFxZGgK6BK+4OsoTImwwdhtWc7YXZ3K7Ko2E2koroY0QJDQRaq5rY+o5DaKjBxsP67uFZgdjcA2fiS985BtPuAmN8crNuo1Dm3td/QjBDC+aAwEIL0IzGwVNw+0UetWvOnCd/Qd34ilePeXV2XMpvX31G580eGjNHpH2A3/X0164Euxu6Gh7jhnsa65JzaExEIQEu1uS4NXv7q9+XyV8mqCYBIhYhSakSS5UFnNrG6ErFyqXr26EvzecbfUz0/UZLpiEJ8x4zFwd+bUV8so7Dszxz7gxqNNxhiZCy2B3YJvAbN5OeHmJId1uYFCOgPC+gmZBxa2v8Ix+cJzxaATHK4e+6k2307PsKl5fyvUHN7gQDo5lygnJrkQJCjv0PI6pr+3sX1zeHEN16nPWMZ54p3YzhN8ZfLdwfmeCrYFw8ODPtT0BQPuhWTia0CJ938HGRuCrR3jI+04bM+dk3BJvEmNADDMnL0YWWoTKhdoJq6uv4sFSZ+bN+BVuk0lmvD5j7PCKwWdftdOfeupM4SDNVy9cSteusHJ9y1MPPILAh0feJXhz4hysrl2LNd6RxoMri0sbfUZD6eCBub1ysHLi8tTb+TNd/U+FE15jEjpeMFwqt1tno2DktCCp/Fztr/oJ/+qB3ZyJ16dyPlda+7PxBkcZrY6wcBXqCEhz+Pd///fDeOnGw+2N44VbKYLCMZNxmeahLu1Rf+EycQ6fVwsfplFE6FvDCG8SeYxsEWDqScDqya+ueP0gcotZXU7ela/draE+m8j6l4arfvUJVnXCPby1Ka7+TFdX2xkPnjxtpIUtFkcQP7PmzYR3FDQKdVnW7WjdisBRf9Fu9qHPt3z0qU54y/9S1/jALu42i7YkPY2Zdul99NDuym381G3cwk2L+m+c6uSV5WurX7QgjB3/tKP9oTvtj4AzNwRDv1dhDDQjAp0m4lEfB2b91s/VuJ6d/3RBgUBU5BaRxcDH5BFUWn4qqJsCZ/AmMIKrLx7hd1i9He56paunHwzCyysuf9Zt8md59TFp9eVtmOCEP3pw5R2Jb/+4evXqz27mM3M7lf6o71RgWgV1GM30yesvPMOh9AzDv7zwbIFJT1e9W0NtZ11pMKnnxsWxx/TJuUXmiBU9qj9hzPgBYPwBO5yF6DTnQdXaV1c46TDbiXNsKq6i0ditk4/CHDcYrB09CAr/GpFxk5Bgp3DkYMz8KiiGBI74V+GcDMTmPXRi0KO2+VbAuRxRO2u7MeBJcLuqOMGBifQDZnDf6rd6M7yqjynUw2B7YUvHUPWbgIBTC1TemdPndOoZDy9OMBICbj5cozrj0h7ssI4emJH6ixGp6+7u/R8Mj5e8s4BTC3yOT/5Mz3hjKq90i+uttrV5KzRe5eAES8hg6yaBIyg8vOIIEOO8VVCAnasfY+D003zNerO+fL56tTEf0VIew7Fn3HgT39Lm3HS45fC0m1BgjyA44E/YMVqzKdE8dh/1Gy6vFj5No2jiEN0EUMtIaVZ7137eCPi1JpLaRFgo7qepp859PuF1BsRc0mkaewLAnz7GvyXUbuIZ7IRAIViccXCYisYTc7vdMAYPtix8D268t8A4cGfEc9vRK0VnWkLQJ96EgOtU9BC3gKi8jJm0Bl/TslWwrrsNQRNHD4+CCF9jgE+MbwzcpMmMz7rytdt55Qdztr8lHszgSrseNT5xc4omHEGxjx7aXfUzcaof84IW9YcGtRefaW2CMdtrW7/wor25WcJ3eBPtXZM6enhTQWAIPbYjJAgP7ycIij4Kqx+4hMcx6Bf88zRBgThNigVFynqiTf1kiGO1d+/M+m0iPGLyNsD9Oub5+c9/ftxNq29STNgkeJNQHzMdkxQ2STNtrrThlLebwJXl28J3Veaxjd3DQnWtadFidDuOBW/ROn+7jRDaOVnxMY/FYPc0HhoSAemjOEKDJkV4ogvhQvDoF8O7l/dZM5pgvN5RONtbcASLH3aFK9yNo0USDxrrpE3xFoR09KhtaSF6gK+ePiorXvvSyovXFxji4LsVsNjECcyebaMNWrURqK9dsIJbWvtwEefVJ6zTTNUtP3jVLV+dcKtMWj5vU/NOQp6jB3sRwU/AE+Di8swjjQJPM9Z6T2GTCH64Brf5ebXwYYKiCWuABl5eRNhhRDKBiGdhMQrZQeyMfveRddlualK8GaCGW0j+tbwyHz4FFzyuMFx2qH6Tjtn9IrPd3kK0KKn4jj4WLkEltAgZsCxkTMI+wCJvFyQACAYMQRC4pqQNEGLa0xoIQUxjh9EHIeMIZQG0YOAUXo1pjkce55iBRpgSTcA0ZkLJWRiO6PXKrrGEI1uEmw+0sCsbmzrdelTPom1+CyvbMMsXqlt99Wbd4oX64EpPOMUJa4KgI7ObKALDVbbfobBxJDDUFTcn/ucHjQLsORZp+Anf6rf+Pzp8mqBo4oQEhZ3TDmuB9UDFYqDi0RgsUu8HqG+OICzKVD9HE9dVLTCLz0IkQOz0BJA2JtBOZccn2S1marzF7PrNwnesoQ1Y+HYxzKt/+doRUC14+LIX6IuQYVi167MrxABwijkLLQTMRUAYN0FVmXby50OpGEcIHkdQOf/CjRWdEQ0cxza7Mjq6pjM2cdqKOI++tBhCxa5tvDSQ6mF4edoQOGgmLg/Do5t+zQc4PPrIN18EPWFJ6BOucCVECTfajoUvTavSFixpx0zag3GyTemPA8szdW3Nkfq0Kd68yW++aCXgq6cdHOGEn9DFUcC86puAh7N87c01mOJggAueetprI884PAZjTPbwKi3FBmZu8Rt84Wazo1kQgPCx4Whjw+CM1dyb13il+T4qvNCfpwmKCNUC8FrNZPC+iGSsw3SEAcuxhS5uAhCdsY4xyUdRBAfBYJHawU0o5jZBGAWDEw6Y1kRbLHYtfVrwYPM0CcccnpbRzQpmaFIt8nA/m0cTrm51YgAMQRBY0GDw4BIM8tRTXr40xtNuenAtIrcdrO60KoJKHV+MOrIZ79/93d8dNyCY1k2IkPZB9SVcqMJ+UhCtHV/sgujJKq/MMc8uyIuXb4Ho08ImuAksdCak1NEHuPDwZgBOPiE3R+JwZj9Rz6fZ/I9//ONvvve97x35hK/5IRAIQM+l/TQiGH4IBkwLkPHQcc5GYY4JB7c98ixGx1ZCQDlNj40APxEG6ojz4GirHhyVqStfepZpqw0BQhDjQXNHsBMejqE0Ue3AQ1vj0QaOjJ3gmq/4XhhvxTvxzxl/PSvvaYJiMr/FQSsgzTErxsRMmBdj0CgIC4zCRkF1w7DO4a7RlBMSCE2CszR3jMBszqf6aCEK9Z8Tb7KU5SxUMLnK1ZWHQfjaNrnKZp44z8189cAPTgJCWJvZrrh+CEK7ox0ZM9rNOIuVUCBEeIzZx2qEoONORtVuUjAtLYxwREMCV520I/Xyygk3QtSuqH+ag6MhQUxA0VTs1LQUWphd1MInwGlk8syhefWvBvxknx+jJch8gm2jkJZv0eIH1420DQKKUMMfdnoCk9aibz7NSF6ehgRHggd+NAcaUMc19M+hrfEZu/khxIUc+je36sCTgJRvzmia2uFFfExw0HrRncDiu7FCYy4+1O/2R4UX+vM0QWGRIA5Ck8h2d2quCcVoJhfTYQaTYOfHmBjbhIh74TYnEqxgzkWO3nOiMYfJlsdLN2nS4vIq04c0mDNPfsyjX/H6r2yGuw/p6ovDiQ93eXxwCT+Cz45l13N0oHk5D2NCi4/GJbSroytm1w5cY0A7ecK0JoyL2XnCAE7KCQh11QNDPHwsVAvXbm2ntYMT7oQVQcbbRe2+4tka4KetWxu7rl2ZQICDxWtBMVT/8Ic/PM7zNghlxkiYEAgECU2D4CEcCAP84CiJh3iaI8HgqIFW7Al2du3A0XcGTiFhyaG1MZpnDg2jA5qgj9A4HUnU58wZT1NFD5uVuXHVTysxbjxOozAe8MFpE0Pz6Q+gL/TnaYKiiUAcxMaEiIaZY2p5eUxs0oTqV7dJlRdM9JWuTL64vmZeddRXR5oLJ+kmLxgJEGlltavNhKVslgerUF19BAtuxqePcJOWL8+1KuanLdAcCATvJhwPLEb5jmI0MW8p7OYWGsMgBiZ4LUQLBvNiaB7zYmI2HfXR1nsWzG13tNi1tRMXEhKOFxYrjUI9R0L2Bcc+OyojrkXL1kGoyVcOtuMPw55FT2ugZdA8aBKuvu3GP/vZz46Fzbbi2KiMduG5tKML2wZhRBjoXxwdCC8+W5dxKDNWdQkKhnJtaGaOLDYnwtAiphWgu00JzmilHToYo3YeUxFyBBj7DvhC/cJNXWMzXz43JzS0dWSx+dGEbYoEHQEZX07eOJjxRf48VFDE8Aaba+A7nIuoRYFY21e260srS5LPdvKrv8ONx6fScxxgqV/fM67Pna5vuF31U52r0PgICZ4AxcwWu90bY/pv5ha5XQ/DO55hQGd6Rw3M7lihnCCwIC1gV6sEiUVLM6OR2FVpLASyK1e/0mQh0Ogc97TH1NRpxz4LEHx5cHA+T/tQF3766IYHDuLquAEgDNgswIEjQyDhQdgRRH5ujnCyKzua0kIcKfwgjIVpQcMxPAm50oXw58E2TmOnVRCy0sYPR0LYWOAGF3RHB0cs40cvAhcci9s3NoQmOhGUNBZ2LpqNcdF82HEIRgKVVkMYOTITEgzs8NUvuuCfeCieK8Q7z3ZPFxQtugh1tWAqfyusbQu29AyvFuxVfv2BUR2TVn4hxhK3oO1G0urnarvDiduMz3by60c+ZmQ4xLAWFmbj7MgMhhaDD5Ms6PoDI4E1YYM7hSz8petz1pXHqeOoYYFrzymjiVi8bhvs1HZXiyf41HZ04ez2jiOOHY4i6nAWpEX4q1/96lhYhCPYhJhFZoHRoAg8ea4kLTRx2oBFfuYJAOUEoUVL2Dae5kmaby7hNMd3IPjNNwfd4U3bVZcQY3vR1pywo7CFEIaEKKFOwyJwCKmOHs3pDOvj1cKXEBRNkPDKzTpn8RZE7Ut/aaivFg5YJlXIFaqDYYR2IQtGaEGpr/29eDSO+qm9Puxkv/3tb49d3X+gwqic3dEHScoJEAKD0yZfukVQfuFkWnXyCcDSVHHCys5s56QZuAVxLHBEsPvbSe2ujI+OF871npmLU92p5zxVniMUOHgzXuorZ3GxuxCKtCbqPLjy3HI4bulfuL06tJDqONqgETfHO+PmU//ogvbGL04IGRNhzcGZPY2xliP8aHNo4gUtvAkO43GEMn5aYbDB1G/0B6O5LjwAP/nPywmKiLPDCHkWVnfSsrxHhE2qCcUYCYXypRMMLSihcm2UfwkejRkMzm7qtsPuRTBQx5XZLTvzEyDO69rqHx5ceEjzcAxPZY2petqLT2cntZhdjeqHBuAo4DxOi3D0YWDUPyHA0xpoGnz2FAuYrcKCd263kNgzCBRHGwZJNg72DUcQwpE2oD99dCSAC5rQRqjz29Nq1GFgJEyFhLmxRYPGGQ2MMeEQjdRh62GbcOSQT3DQrGhvtBY2FEKDkEALxyZjZBdiuzD2+EffU/uMzvrJlzfp/4z40wUFQkxiRKAdVm+HiF3dWXZFzFnn1jiG0Q9PIDTRGRqFVF/MBRcM1OLURvyqrys8G9MMwWIpd863K1JnGciotphUuQXm2o56bheVD//6B09cXT5cWwzyqgs3+YQjGB6XOadb+HZI6rYzPJy0ucWBx7FhEB4WlPO9RUTI0YQYGv/hH/7hOH7QSoyFILKTMywSEmgw8TSuK7dxiwZwMd7mU3t15akjn68enNGXgbNyc4AW6tHsaAxsHjQtIeFHsHiO7zhI6HHa66cr59KV6ZOX/wru5QRFk39riNhNLKLymzEmoW+FWz3wCICYpTiY9avMDjUFSpMMTjgFc4YTtxmfdYqDE/P2lsC1sUVmR7Og7cLO8oyP1F+7LpyDIQQnXxrcKVDCxbi8x8Dw7Ap2ewY6AkJ/2nPBKQ1+NCsurQ9eXn0SNLQj53c7ryNERyuaCWHX9ayF1ZwX6rO+xK+8PpVpVx3taqs8r44NgBe3EbDLsL3AWx5tgrBjlzEmdguPwQhQxysanpsWgo2x15zRMPStHzDQkBfnOWXhJf4K7uGCIkIXNiGvHjYZ4Rn+JqzJLA9TNLFNqLTyFgJmmgwY3B3W7w7ra4dgguFcjBkxK0FhQXFUYtd/LPF2Yep9xyKwMD7cxIVgCeVz0sbAQOi2gHBwm8KKTyilsqvX2BtnNNg4z3R0m3XF7bTeh7B10CgYM918uAIlKKIn3Iprp29pfvZzFodz/hjst4tSnvqNoxDM5pPW46hFk1GO7gQAAaoeurOdqIfmjko0MHYRwkFd2giBV3+fwjFchc92XwXFOvo0OU2iNMbgc8pi+Jg05qruXAjqB3eHwdxh/e8wPGgQnlrTIAgJWoQbAPCpwt5R2MW8rVAOH7gmKAg/sOSFKyamPjP0OXczzDnTWxztrI0TXrWNFhvXs3R1d0gDoqmwNRBMdl+Li32BxlFf0Tc8hAmPs/7Ki77oU94M4QMOeOoIOdfGXmESEo4eymhobB6OfQQnQewtCuFA4BHUaEnIORaiH4Mr+wyH9rPvGQf/zB8Nn/jnq6D4hKAwN01k82Qiy5sML69Jrryw/FvD2u1Qfy0Oqq5HSRaUhdWPvbC0e4tAkDCoMXg6PnDaYmxwOUxPRXa378rQIqWNuNaj5nPqapeXNg7pjd+XpMHkCCdvDuBm8YJJUEzY+p60SJDMOjN+AB5HpMbSGJrHxksAeAdCW3Pc8qwdPCFNgad1yWOI9R2SNxa9oSAcfKNCEyM82FpoIdPGNfErfsUf4f+s8Kug+ISgaAKFcxJNmPQsL2/n77YTzlV8wt1xzM3Z1Zzl3de7jmSTsFtZXBb+P//zPx9lmJ3lPcZW7nER679d0PHC7sieYScEHxyCIvzCoQW18yt/REhQwMuiShiAq09p8UK4Gs8tgkL72mrHl9aeQyMClzGSFkFj67gFHxpG9iBtzAGDLFrSKhw/aEC0Otei6CpPGhyamT6vfHTd4YHcE/98FRSfEBQtjDmx5msyXXXkxYDCmFnbPfGlJ9xb4mDG1HZcRwQMLfR+gUU+fBjSCAhahVsE14p2PTugmxFM7EqR0AjvM1wxN9/CmrjHuzPvrXFUb4fhLJ9N4upR0oYNJ4Ji4rfrlK6PQvna65MG4G1EAoI2YWFzPjRki1BHX+jOobX3IOjZp/IECSGN1l5+Or4R4NrqlwMjnHa46VL6aPjEP18FxQ2CosmaIQazYE06L44RMGxpdeRhhtl2xjejfCodk4PBOVK4UsScdmHnY+d9cGgErhYZPe12f/mXf3l80i1uV4zh1eXgK64P8IWNU93GWN+F2orzn8K/ejvUbrafOBRXXl/1owy9s7mUP0N14F4fwbDzs+MQmo4G7Am0GUJKX+ASEISwWxmLHQzHDw/F3M7QPnz1SqPzapTWkX3FkY4x01sQ7SYNJ34zvulS+hj4E/88VFA0kU0EAjTQVwubnImXvMmUO61ueTEfBsUABIS8BEWLrn6UTV/+FCbBlldf5WkrjuFbsPXp6OB4gcHdHGBcuzJGddb/zW9+c7yYdFPi4ySaB7uGYwYHbteO+k7Qha/xVT7pFZ4zrziYyvnGcFa/OrNd9fVvrLNdY1enPuTBcfYF3uZDafXcQjhSuMq0kL3NIGgJAg48i54Rk3fbEw6OGNo4TtDOaGXeR3hkBV92Hs/oCQy2DRpKRz4w1IFbtH0rNL7GcSD2xD/fOUHRhEdzEzEZrMmZ+eIWj8ViceYwVDsZGO1swmAGT5sYW1kMU1wZL18ep9/yi+tTntCOqD4B4SoRg9IwfFHq5Wa/WeFjLVZ3xk03C14Hfv/73z/qER5+swJ84wNX/+EFvv6UGRcf7oXabt94tZ1jCV719/ik1dlefXnoDccEQ3CEcK5ecBwfGB49fqIZuKK0yBltPZZitI2m8HQljD6ulrXRD+fBlFeXPsJzzHCs8JCKJuFNCechmufb5oN2R+OgsQRfGP32+EqHd2njeQX3nRMUZ4Qvr0kSyis0UQSEs7zdQVwZxjTxGEAeprJ47SYYWl6Lq3oYQNt8C7K0cnnSEy9p+TzmB0+5UL/UW78U5ef72SZoERYDPHgaBlsFS7yd1ELwVsEZmx2D+u161VjAhfvEtXhMjybhfBaCoQ0vro5445U3fTBq01gL1c2pmyuunnGaH4LRU2sL2iMpRwHCgeBke7DojY8zHm1cw9K+2BR8Ok8wco5o6Ob62W9YEAa0MgLCmwk8YQ58Bu93XMHw5arvYBxLohf84Co0xsa7w0mraDfHfiD1hD/fOUGBxibA5PLinMnAPBZ5u2eTWhtCgLqeEMAE6lPx7eR2J3W0T0iow1uo8md/4NdHDKNcXgwmX14MJM0RDmBicDulBcH28Ld/+7fHgx+qNCFAWMBRO3jD0S2J37OweCwAu6zd0ZNvi4J6zcEBjSYO4SyvMvHt4dzY55gar/FMXx/qVl/dnHI0RV+Lkx3GkYAGQDOAt5edricdvYzJdyHehPj2A62mI2zBcBXsAzfXmOwTaRCEDXoyRKItOrNXEKq0N3XNp/qOfmlrbjfQ1jcrcIU3OqG98TTmTa/SzXN0kC/v2e47JygQ3oSZOL4FaSJMjrTyJk5avnSML45p5WMCwmMLkJhCXROd8JDOaa9e8JWVVz744YMp4YCJ2RicganJdsCOD87Kfi8za7wrOi8FLRR4GLN+qMt2yP/+7//+5q//+q8Pg6dFR73uF85Z9Y1Tv9rlwid84Xzmo1djktYGHvndDuzplbt1YCuwGAkDgpHx0XGKQKBB+SDN4nQk8EqyBR/O+kYjtzyOWxa0z/LRjoYBL3NEC/C9Bo3AK1EaBmFCYNBMCB6wOEcatGUsBpsmQUh44IZexmGcbRrGIs01/h0q23SVfrb7TgoKhM83USZ1TySGkCc02Sa/SVe/nSKmMJmzvD6E9TPj8sApT6g/eeWDKc9jHe8cGMuo0K7kfHKNuXMtZg98/GjtP/3TPx1MS0W2sCwCOIPH6YNBzo5JOFiImN2C++lPf3r8piWNw/cXvmfI+AlvuE58xcEDO6+vaCivMakbDOV8bYW8PO3t/ISX41LaAcFBg3NUsmurNx34nDKCgb3AgidgHB3YaWiBhAn6ES60BxqVY4WvceURxJ6T07a0afzoTBj4oWKCGo7eU7gSTZBEA7hMmodn/LBD5dEmGMJnu4cJij3gL0kjTAwk/iWwdtsYcufrJwZWJl6eOHwIAYyFMaSp9JhRfjgnTPQTvA0rZgBDGY+ZMK5Q/xy4zsh2dkxOvbYD2jH1x2nbwpLHa0/d/o//+I9v/uqv/upoywbhZ9gIBVZ/Tl/h6f7fS082DDupH16xU1qkLPfUbYvIzk2YGPfsHx5oIzQudHCLQJOJdtFJv9UzZl5ZeY4Wdnl0puLTGtBhOmPUn35cVzpSaQcvRxE0gieaEaoEYvipT+gSDrQEWpevcftBHLQiNGgV2nZs0RfYhKfXro44nrzrw62TunMcxg3Pe705RIuceDDEZ1l13jt8OUERIWL6iBahvjQ8ExT63P2Up35t1BHHAOIYPuZXX351G4dQHrxrX5n6ebBqb4Fgcl8murpzlec8jmHBCNaM1wcY8oUWv4Xg/YRF77gBptec1Gs7csLCYoWXndZ53W7JYPeP//iPx7lfW4uEduKczvpPs2EL0QYdODD0T4jy8ODAt9C4ib98uPPRxdWkY4FvK7wRceywo9OIhGwCvpvwloFws7Dt5IQFPIRoFU6OBW4wLGh2GULB+I1TPk9o/Od//uchIBzJCFqChYM3+I4f3qkQCIQSzY3G4fjh2NYcqI8GxnMvv+ovGkYPcM1T8x0Nwf4o97KCIiIV3kvwq/qIHcGrU56+yhOX3+KdZepwyuVz8lqku279yTfptRPnOUzNuOZhD4a2o7M32P2CN9uHpxC84IrXH7iYliX+X/7lX44PxezQ1GR3/554u1KlnuuncWnn/O23J+yejiWEBtwIHwvYQqax+F1LV4JehxJqcCZU7OwERYsNTPjDrXihfL7FgA5Ue4IInujBrkDNZy/wGbeFSTNyBHEss3CNlSZBqDpqWPzePNAMGDkJFXAcY2hN4BF8hCI6EAbGnSNg4KG9oxuBRAixERFSrqAJDUcScx+vmAvjmXN0azyaNI9g4Q0CFfzmSKiPj3IvKygibExU+ktDEzAnUbxJOctv8msnbHGbpPDRdjJL+dWZfYhzQr9zkIrssRTGxOjKwAOXE1pIQh78QnH1Swul4ckrx/SOEH6RyuKw0C0ed/00BLulhWMn9Q5gOteHzvnq+BrV8cU53i0A46IrR7uruI+jGEhpHBYmgUcjIpyMy0LsiGB83Bwr3PXnp+5c9TqC0HyEPEFF43AL4UtTeDmWGRNtAY4+0xjdAAATCElEQVSMnOwKbjOyI8CVJqIeoQc+eoNBoOVoR7QktiBtHbfAImAIWW0IL1oOOwZ8uWg950E8Prg1BKv5aw6/CoqT8xsiRXxEQ2DpWwn9qXoblrRJnhNcn/IsTgwtnldfu9oqD8aMV2fCMSY7n4c4VF/GNaEz83zHEA7BA2uODRxOHqeP6gil4aQvXpzrBsGCtugZLV2hUr/dHtg5LQ7ndTs3O0NtwXXW70dmaBHO9//6r/961CcI7PKOCM7vricJPnAJpT/+8Y/H+w5aCm3BcYjXpyOSuLM+e8jf/M3fHO88aCvqO4JYoIQP9V8dNz+EGxrqxxHAAiecGCKNgXCkVdAY4EGg0QrQB+2MjaHWdx5sIerCFWwCyXi9x6CR6dfRjUYVTWhOeASs+ER8zof0rd4cofOcS33xE+YxmR/45+U0iiYwGkT0Wwl9bz0TsicBDPlwIc1TiZs85U2esurURrvKm1xpOzXV3G7E29WpzmwSObC1sbiF4QI2J33mlOerEz76xsRg5qjrFgEhYee2yOya3lDYUX334GhicRAqbAKOFBkEwaEZuHnxjJlgsHhdD1psFqj/BGbxuYo0bgIGPLDFLUCL2UtSWg3NwHFGGxoLocBGwoBqN3eE0obGACePxhx3CCTCjQGSFuCdiHo0HfRF98aONuwXjJDqECC0KkJKW3NC4DmGGANBlfYwhaY5j74JCOnmqzkQ3uvjmeYquMGW/mj3koJiE+JeQqt/5a5g6fPMW2RNnLA4OMq0kYdx5FXeGAgSOxDGpwpbNJjUTlRbcIIlDxzhmb8a11V+ONdHGkr19eWMbae1+Fjznd9dkbYA7cSMf65PLSbqu/rG4SjQItQHrYiwYUugbRAMFqEF56xP7XezQpj4cR3fnfzud787NBtHF6q9oxghRjNwlCBwaC3ehtA0CAU2Ars7TYA2xq5B+IWL8Rkrm4UbExoT7UO/fqsDXLYPdhjl+qOZOJIYo0/HHVeMBw3RqU0B3ObGmKNptFb3c11wbw0/t597272koGhiGsznEF6be/xbExMcdWKS8jAKIcHHNPCm3jJ0xdCs9dRyY+NiKm146XAAu/gOo8mtYe13f/VhPOEkDkdCgB3CYmm3pxFYwGwDbgX8YI5FZ8ERLI4hNAtPp+3gzv12ZUZHzgImHNHJ4iNgLEq7OcHjnxQzDrqO1T84aOcI4ZbmL/7iL456jh9sBnZ92g2Y7B6OCQQX4ULLgCP8HWUIJ3FC2uIntAhuwkw9Ggo8GCvZLAgcDl3gDWdCQjx6oR+HvtFWKF3ZUeHOP83XreGd4D+7+tMExRUhWjSInVf3XncFP5g7fKt+OKlTPIHRIoMfprXQLBAWd0xLZabqajfb119MVnrjtdP30kH7YNdXDF1+4RyLYwXDHu3ATkwYOJ7QLNgBGA6d5RkTCUQLmurv/3o4yniz4RqS7cGRws5PkFiIBAGtgErvGwn/a9TVpIVKQKEf+wjjIy1D37wHTTQOcdoIw6w+LHLaCk2AEMiw6ehC4DDQEizwNBaaE3uJY5c+lRNe6MChGVqY4zxB4eZBvvJc8xMNS1d+b1j7W8N74X9u/ZcVFAgfsZqER4TB3OEVbAs84YBJSqvPyaM9WAAYm5rOyu+WIWbTRn/ayAtO8dn3xmun753o2b5+9MvNsnCyICyO6eyojieuBR1JLHwahJsNGoWFaRESBgyTrlMtYjs/uwVV3zFEG4vUUYMgZQ9gUGU4JICo/oQHmwQbhkWsPaFkMTP6OrbIc6VLi9AWzdlKaAKMxI4i5sCxx3GJUOK9MJXvmKFu84EOjdtctQk01wmJ7DPqbwfWpOcuvzU9YdwSvxXul9Z7mqBokezQJJmgmLrJbNK+NLwi/uxvxsOlfuGrnAESszKIUZExMSZVTx9cuGO02gevsit8vnRir9rXn/KEg7zmIVxLw7NyYU65I4ZF55aDZsAw6DhhtyYwaFQEKBuFr1sdN2ggFi2bAwMmg6NFSxjQCGgljge0CkKDpkF7QGsCWXt5biG8hyCc/T8QxxMwaDAMq7yjBvi0IhrSxt8Y0hiEjhbGy5mnjpPVm3OnXrSJJv+Xw5cRFBHeZCTRy2uihLw6+TnR4uXPesWVY5Yz36TXR31rk6N6ul60EzKEMU56Uu2xEibLga+uRScerB2qf4aLvPd0wd9jhV95hfLQoEXUriodnHCV59rTrQWNgQClHdjVXXEyRnqgRaNwRCEoLG7h3//933/zgx/84PhUntbgmOFT+V/84hff/PCHPzyOM2A4/hA0NBkain5oHo4YNAzHJdrPfBsBv8YjbG7MT2Ob5fFgtol4qvmbdTcNosX/tfBhguKKMAh55k2QCUD0yjNOyZ+TUroJU98kqw8OGCaVk1YuDwxtlMXwTbI68qQnfO3Blp9zLUb1pT0wflF3Wdm71gQLjGAHszQ46pz5+vjoMPqGU/1LTxeN5BdvfNEtWBYgoyFDpytQtxK0CnYHQtVbCHSjiTjGOCK4imWzcExowTM00gYIYQZHNzHeSdAotCUMzJF+wz/8hPBqHue8JBjk8aWNJ1iNvTGCwwen8vcK53hmvP7KK/1R4dMEBcI3mQZv0VEjqe9UUcYn507MlEpvsbK6UyM9knGPznhoIWtDzXTdZcen8vZ/KzEiptBPEx7BY/7yhbwdSR9UakxOOOgfo2ozmQdTTYYqXp2YsD5n+FETvfuB08SrcrhNp47xTV/b2gsbK42CjcIRwNsLC95NBvsAO4SXqJw26MwRMN4+eL3JMf6y8XCMjGwdbk/g0C5vkzCnzVf973Q4GpcyMOTVv3blzXkR32PetDkQfPCfjcNMh/cc04O7vwT3MEExBzTjc3A7biJMlPoexlArLUw7CiHAKo1JLH7Mw9jFum6X8ZbftZbdimCwy7B+28UwZo9xqMHyMIn+Y5Yoom94CJU5RhAwhAMLedeamDIX3sGUD3aai7g6jVf5pMmMB/PWcLb9kni4BaP+padrLNGtcdWudDRxE9J/M3fkYGcwh+bNUcE8mnMeTcG36AkWdgiOMM4Y7B0EewdBoU/t0DlBod/pG9cMw7UxKJMn3RxWR6icK179I/Od/0w8ZhwOxhnO4uH5zigd4J8mKGKWJtniZAiz+AkIxkG7EQMZAeHRkkVPmLC6O69SV9UnSOxUdi1Cxms/AoQdgcHLi752n/qL6JiONsPgxVDmkZGzNe2BlqJezGmSTJ42vDIuhtqwS88J3/F7J3m3/9w0JmsBgJGbcXkxaGOpTfUnHDQhpM0Z7c78uPEgONyCuLqkPUQ3dHWlTCgQImkUtEbCXz3HDYKCZsnJI2yiP3wnDupEk4m7uP7MIRgzLT7bSE84myZH4Tv9CY8dwjkh0RjkfZR7mKBA3DNvMFfegE0e59EMZnHVZaETBu7MPZhhVccctASqraszz2vd11Nnff7sCGL3cs51t+5hDg0Dk4HlQyPMpT9Cw46kDY2B5hBcO1gTYDzVr+0sazLVi5kak3a8dOXVn+G9E31G4y/JC5fwaBylwTbm6hXWp/Hx8hkzCQpPwTnC3eI3X24mzAe6owuYHnERHh5aucnQlkbZIygbhLlj3HQFK82mMfvUTziCGWx5cKpMqJ064js9x9V4qyesPLq8V1g/O4QDvPLh9l54bLjvKigalLDJLc9iFUcQjtXaNRhNwsJ1TUZbcM/eE1wv7Ki2fsiln0knPNyNO7pY9O7rCQd3+u7sCQxMhmkRl/aAefVBc3D/70UfQQIfTj0M1+TAtYmzGNrNql9Z9RujNM9VZ4dH4R1/gvmoMHxCQXo6/TRO+dUvv7EqIwRoZIyQ6OQo4UjIMQQ7giQoaBKOd+aUcOBpdDRCAp9QoVHiB/PK5mReaY1bGOAtc8TTWJqfo+Nv/8A7msma6cYkbDyVl55tJ9xHxycuOz5pLq78o9zDBEWEDXkDaYGZSBOISWaeSag+pvK6zjNhDGPBO2awovsYyRmVFoHhHCXsPgSLYwqjmcVOE5FPy0hgeBRE6NAe4OTqzKs/Rx1nYThwwnYccXXzMaZ8+J/VMw5eWeXlgV98h/dONBwmfqWvwsaww0/1G56122n58vQrRCPC1pGQpoBOrpLliZszizxBYTHTPGwErkJpDQQJrdI7DALe3LNdeJ2pjPAgSOYchJ8QLuAqb87C05wUPxvLhFO9TVMwa/sp+n1pebSduMiThpfwI93DBUUDEDY5BmbymuBJ7OrY8QkGTEZoYBDnWsLBcYTGQEh4iMMRKARAPzSCIT3Z9c7fGRnzUWsZ1GgN9W+y9cnNyZhMAffpw7FxSFe/eo2psplfX9WZ4YHIHX9qO+GXdxZWb4ef6jJYtTPe6ZQra1EqYwj2voHNiKMJmheOxkBDmPRRpo7Xno6LrlRpiGxRjpyeitMGfZHqARU7kj7iIziFX2Hzq5/6Uk9cncYV/rU7C2tfG3CKH4N6hz/B3/iEv/zG/Q7dX4J8F0HRYCdhG3hlQpPaDsB4aNdwrLDTMIZRTbuP9yMhNIY+MsI0zq+TcTAjIybm4gkOMJ1r9YfBwmMSXln5Z+GsO5m0CdOmcck7y698h5cz80YBGHDixd9yu7/Sb7VRVr1Jj9mXuDJjhYcra3PjzYOrZBqc+WOEzNBM4KdhBF9f4Diu0AwJdXNH4NgY8IL8jjDRds5JuExcm4foVP36PWsz2+PNhKD86tf+U/T73HLwG6N+xcOl/MLP7eNz2j1UUBgAHzEjsPR0lZu82jizYihGS7cNBIg8qqq40J26Iwy42jpGKItw7A/OxjxY6mDMXulJ8+EFJ7hIX3nltVHHpIVz/QZP3comvMZ7Fk663BKvD3iEi7wrd9bnW/WDU7vGId/YLB5eXB30p+0RyJ5qu7nKvuQfDMnzRkK+z8XdRJlfcIMRfYVg0ygdMcy/Oa2esll30h0upcNZO/XRqXaNq/rV3aG+8FFjVR4e2r6XA1s/vD7hnt2lMYTre+Kxx/dQQWEgDcYg5kBKlxchhIjR4JsQiKqbIIh48qozGUeetPrinDYmO7wmjOCH19HgZCdVrl31wAqOUF985aV3WPkO6/fWMLgbhw239K1wd73a159yfaJvc6IOx4bEpuDYx/jI0OyGgjbIaOwo4njBRsH+4CEduNoLo2PwfHELDgFf/9Fd2pxqE45wKF79wui0+bK+q7dD9fFTvFn9+jkG/k5/whlOaG3zJCwaw8T1nVD4/8A+XFAgbJNYb4jb4MW5OfEGLq1shiZqt41I4KnbRMovL3jaiwd39hlulZdWl5dfWeMJjvzGM+vNduUXBneH9XtrCB4YufrccEtX796w9hP/4oVogMa0Pcc+t0zeTDg2+K0KV6K+9HRTxVjJWK2OK2iu+WgO9SnPUdGtFY1ROlziLf03J3Nc6oXbDsGRF6y36lZPH8X1M9vOfh8dn7xFKKLD/xlBgVgmw4AwTot8EnfG90SWnnVmfE5Yk1berPfnFr+Xya7Gdy+cT9Wvn+al+jvf4uXMvR+/ZYj00MrHXo4aQkZlxklfhc5fxALbokgYgAMejcN1KI1Cf3OeNx7hs8PwbtHpA0/Ovupf25x4bc7C+qn+o8P6hycfDuFaXng0ztKPxid4D9UoDMpkzAlpADtsgDvc9UqrJ54TL686f45h47k1vBrjre3vrVd/2hUXznlr3uURFh5YsTE4ejBGsjm4KlWPIJhwxOUHX9xmwz6Bj+qnNuFf+iqsHXi8BaZvoTLtqjNhlFe7HVY3PB4dhlc4139Hvrm29B2+743XQwVFg2wiQv4sbIA7PKsbXGFu5l21+XPIbzw7fBTuG27pK/iVz/CqrnzzZwEKc+IY2/c4bqu4CUN5O2NlQvkWhrql5fG1PwoWvMpmWLsWmnAKivqqXm1LX4XVC4/3CMNt4t4G3BjgwYXne+P1cEExCRfyZ2ED3OFZXXnqCXMz76rNn0N+49nho3DfcEtfwa+88Kpe+XNeMHZptxVuOBwj1HWMSENoAagrHqwZBkdYXHlu1j2L166+hC2yWVb81rC+wuM9wnCBc3H9zrGExyyX917uYYIiBBtASM/0jDfAHc46M66edE68vFnvzy3eeHa46VL6anyV73DDLb3rlQ5+6ZizdOUbjrS6NAV1XE/7RsfvT8hLSMz24uAWBrM65VdHOjfrnMXDd+IPD15ZuM54ZbO/M9gTj/B5ZAh++IdL44CjeDhULzwficeE9VBBAdkG1EAawA4b4A53vdIRLOTll1edP8ew8exw06X01Rgr3+GGW3rX2+nmcS4udeo/OIWVFTp6eCLfFWe7ufbqbCd/u+oGc9YRf8trwzcO8TkW+QkGcfjx4m/BrWzj+si0PsK/+Dx6hKM+Zz1138s9VFCcIRlhd9gAdwhGxAmeOrv9p9K1CUYwr9qFR+WzXXnvEdbPDusrvDBHDFLZDKtX3oZ3llZXu5x47YNXv9UrXxt1C8vfeXsBznrVrf97wis8J776qp5QepbLS3jMfPWe5TbO8EqgzbKPxu//AcK8Vz7w3brtAAAAAElFTkSuQmCC;" vertex="1" parent="1">
          <mxGeometry x="680" y="60" width="266" height="275" as="geometry" />
        </mxCell>
        <mxCell id="O_zKsr9jnUD6uPcMvla0-4" value="反应釜" style="text;html=1;strokeColor=none;fillColor=none;align=center;verticalAlign=middle;whiteSpace=wrap;rounded=0;" vertex="1" parent="1">
          <mxGeometry x="790" y="350" width="70" height="30" as="geometry" />
        </mxCell>
        <mxCell id="O_zKsr9jnUD6uPcMvla0-10" style="edgeStyle=orthogonalEdgeStyle;rounded=0;orthogonalLoop=1;jettySize=auto;html=1;entryX=0;entryY=0.5;entryDx=0;entryDy=0;" edge="1" parent="1" source="O_zKsr9jnUD6uPcMvla0-6" target="O_zKsr9jnUD6uPcMvla0-3">
          <mxGeometry relative="1" as="geometry">
            <mxPoint x="610" y="230" as="targetPoint" />
          </mxGeometry>
        </mxCell>
        <mxCell id="O_zKsr9jnUD6uPcMvla0-6" value="硼砂" style="rounded=1;whiteSpace=wrap;html=1;fillColor=#d5e8d4;strokeColor=#82b366;" vertex="1" parent="1">
          <mxGeometry x="370" y="260" width="120" height="60" as="geometry" />
        </mxCell>
        <mxCell id="O_zKsr9jnUD6uPcMvla0-12" value="" style="rounded=0;whiteSpace=wrap;html=1;gradientColor=none;dashed=1;fillColor=none;" vertex="1" parent="1">
          <mxGeometry x="680" y="40" width="270" height="350" as="geometry" />
        </mxCell>
        <mxCell id="O_zKsr9jnUD6uPcMvla0-20" style="edgeStyle=orthogonalEdgeStyle;rounded=0;orthogonalLoop=1;jettySize=auto;html=1;entryX=0;entryY=0.5;entryDx=0;entryDy=0;" edge="1" parent="1" source="O_zKsr9jnUD6uPcMvla0-13" target="O_zKsr9jnUD6uPcMvla0-15">
          <mxGeometry relative="1" as="geometry" />
        </mxCell>
        <mxCell id="O_zKsr9jnUD6uPcMvla0-13" value="购买的胶水" style="rounded=1;whiteSpace=wrap;html=1;fillColor=#d5e8d4;strokeColor=#82b366;" vertex="1" parent="1">
          <mxGeometry x="80" y="852.5" width="120" height="60" as="geometry" />
        </mxCell>
        <mxCell id="O_zKsr9jnUD6uPcMvla0-18" value="" style="edgeStyle=orthogonalEdgeStyle;rounded=0;orthogonalLoop=1;jettySize=auto;html=1;" edge="1" parent="1" source="O_zKsr9jnUD6uPcMvla0-14" target="O_zKsr9jnUD6uPcMvla0-17">
          <mxGeometry relative="1" as="geometry" />
        </mxCell>
        <mxCell id="O_zKsr9jnUD6uPcMvla0-14" value="硼砂" style="rounded=1;whiteSpace=wrap;html=1;fillColor=#d5e8d4;strokeColor=#82b366;" vertex="1" parent="1">
          <mxGeometry x="390" y="440" width="120" height="60" as="geometry" />
        </mxCell>
        <mxCell id="O_zKsr9jnUD6uPcMvla0-28" value="" style="edgeStyle=orthogonalEdgeStyle;rounded=0;orthogonalLoop=1;jettySize=auto;html=1;" edge="1" parent="1" source="O_zKsr9jnUD6uPcMvla0-15" target="O_zKsr9jnUD6uPcMvla0-27">
          <mxGeometry relative="1" as="geometry" />
        </mxCell>
        <mxCell id="O_zKsr9jnUD6uPcMvla0-15" value="" style="rounded=0;whiteSpace=wrap;html=1;fillColor=none;gradientColor=none;" vertex="1" parent="1">
          <mxGeometry x="325" y="760" width="250" height="245" as="geometry" />
        </mxCell>
        <mxCell id="O_zKsr9jnUD6uPcMvla0-16" value="混合容器" style="text;html=1;strokeColor=none;fillColor=none;align=center;verticalAlign=middle;whiteSpace=wrap;rounded=0;" vertex="1" parent="1">
          <mxGeometry x="410" y="960" width="60" height="40" as="geometry" />
        </mxCell>
        <mxCell id="O_zKsr9jnUD6uPcMvla0-22" value="" style="edgeStyle=orthogonalEdgeStyle;rounded=0;orthogonalLoop=1;jettySize=auto;html=1;" edge="1" parent="1" source="O_zKsr9jnUD6uPcMvla0-17" target="O_zKsr9jnUD6uPcMvla0-21">
          <mxGeometry relative="1" as="geometry" />
        </mxCell>
        <mxCell id="O_zKsr9jnUD6uPcMvla0-17" value="溶于水" style="shape=hexagon;perimeter=hexagonPerimeter2;whiteSpace=wrap;html=1;fixedSize=1;fillColor=none;gradientColor=none;" vertex="1" parent="1">
          <mxGeometry x="390" y="550" width="120" height="40" as="geometry" />
        </mxCell>
        <mxCell id="O_zKsr9jnUD6uPcMvla0-23" value="" style="edgeStyle=orthogonalEdgeStyle;rounded=0;orthogonalLoop=1;jettySize=auto;html=1;" edge="1" parent="1" source="O_zKsr9jnUD6uPcMvla0-21" target="O_zKsr9jnUD6uPcMvla0-15">
          <mxGeometry relative="1" as="geometry" />
        </mxCell>
        <mxCell id="O_zKsr9jnUD6uPcMvla0-21" value="硼砂水" style="rounded=1;whiteSpace=wrap;html=1;fillColor=#f8cecc;strokeColor=#b85450;" vertex="1" parent="1">
          <mxGeometry x="390" y="640" width="120" height="60" as="geometry" />
        </mxCell>
        <mxCell id="O_zKsr9jnUD6uPcMvla0-36" value="" style="edgeStyle=orthogonalEdgeStyle;rounded=0;orthogonalLoop=1;jettySize=auto;html=1;" edge="1" parent="1" source="O_zKsr9jnUD6uPcMvla0-24" target="O_zKsr9jnUD6uPcMvla0-35">
          <mxGeometry relative="1" as="geometry" />
        </mxCell>
        <mxCell id="O_zKsr9jnUD6uPcMvla0-24" value="静止放置" style="rounded=1;whiteSpace=wrap;html=1;fillColor=#f8cecc;strokeColor=#b85450;" vertex="1" parent="1">
          <mxGeometry x="900" y="852.5" width="120" height="60" as="geometry" />
        </mxCell>
        <mxCell id="O_zKsr9jnUD6uPcMvla0-26" value="符合预期" style="text;html=1;strokeColor=none;fillColor=none;align=center;verticalAlign=middle;whiteSpace=wrap;rounded=0;" vertex="1" parent="1">
          <mxGeometry x="790" y="840" width="60" height="40" as="geometry" />
        </mxCell>
        <mxCell id="O_zKsr9jnUD6uPcMvla0-29" style="edgeStyle=orthogonalEdgeStyle;rounded=0;orthogonalLoop=1;jettySize=auto;html=1;entryX=0;entryY=0.5;entryDx=0;entryDy=0;" edge="1" parent="1" source="O_zKsr9jnUD6uPcMvla0-27" target="O_zKsr9jnUD6uPcMvla0-24">
          <mxGeometry relative="1" as="geometry" />
        </mxCell>
        <mxCell id="O_zKsr9jnUD6uPcMvla0-32" style="edgeStyle=orthogonalEdgeStyle;rounded=0;orthogonalLoop=1;jettySize=auto;html=1;entryX=1;entryY=0.5;entryDx=0;entryDy=0;" edge="1" parent="1" source="O_zKsr9jnUD6uPcMvla0-27" target="O_zKsr9jnUD6uPcMvla0-21">
          <mxGeometry relative="1" as="geometry">
            <Array as="points">
              <mxPoint x="717" y="670" />
            </Array>
          </mxGeometry>
        </mxCell>
        <mxCell id="O_zKsr9jnUD6uPcMvla0-27" value="是否成型" style="rhombus;whiteSpace=wrap;html=1;fillColor=none;gradientColor=none;" vertex="1" parent="1">
          <mxGeometry x="677" y="828.75" width="80" height="107.5" as="geometry" />
        </mxCell>
        <mxCell id="O_zKsr9jnUD6uPcMvla0-31" value="未符合预期" style="text;html=1;strokeColor=none;fillColor=none;align=center;verticalAlign=middle;whiteSpace=wrap;rounded=0;" vertex="1" parent="1">
          <mxGeometry x="720" y="740" width="80" height="40" as="geometry" />
        </mxCell>
        <mxCell id="O_zKsr9jnUD6uPcMvla0-33" value="半成品" style="rounded=1;whiteSpace=wrap;html=1;fillColor=#dae8fc;strokeColor=#6c8ebf;" vertex="1" parent="1">
          <mxGeometry x="1280" y="167.5" width="120" height="60" as="geometry" />
        </mxCell>
        <mxCell id="O_zKsr9jnUD6uPcMvla0-38" style="edgeStyle=orthogonalEdgeStyle;rounded=0;orthogonalLoop=1;jettySize=auto;html=1;entryX=0;entryY=0.5;entryDx=0;entryDy=0;" edge="1" parent="1" source="O_zKsr9jnUD6uPcMvla0-35" target="O_zKsr9jnUD6uPcMvla0-37">
          <mxGeometry relative="1" as="geometry" />
        </mxCell>
        <mxCell id="O_zKsr9jnUD6uPcMvla0-40" style="edgeStyle=orthogonalEdgeStyle;rounded=0;orthogonalLoop=1;jettySize=auto;html=1;entryX=1;entryY=0.5;entryDx=0;entryDy=0;" edge="1" parent="1" source="O_zKsr9jnUD6uPcMvla0-35" target="O_zKsr9jnUD6uPcMvla0-21">
          <mxGeometry relative="1" as="geometry">
            <Array as="points">
              <mxPoint x="1150" y="670" />
            </Array>
          </mxGeometry>
        </mxCell>
        <mxCell id="O_zKsr9jnUD6uPcMvla0-35" value="是否符合" style="rhombus;whiteSpace=wrap;html=1;fillColor=none;gradientColor=none;" vertex="1" parent="1">
          <mxGeometry x="1110" y="828.75" width="80" height="107.5" as="geometry" />
        </mxCell>
        <mxCell id="O_zKsr9jnUD6uPcMvla0-42" style="edgeStyle=orthogonalEdgeStyle;rounded=0;orthogonalLoop=1;jettySize=auto;html=1;entryX=0;entryY=0.5;entryDx=0;entryDy=0;" edge="1" parent="1" source="O_zKsr9jnUD6uPcMvla0-37" target="O_zKsr9jnUD6uPcMvla0-41">
          <mxGeometry relative="1" as="geometry">
            <mxPoint x="1460" y="882.5" as="targetPoint" />
          </mxGeometry>
        </mxCell>
        <mxCell id="O_zKsr9jnUD6uPcMvla0-37" value="填充物" style="rounded=1;whiteSpace=wrap;html=1;fillColor=#f8cecc;strokeColor=#b85450;" vertex="1" parent="1">
          <mxGeometry x="1300" y="852.5" width="120" height="60" as="geometry" />
        </mxCell>
        <mxCell id="O_zKsr9jnUD6uPcMvla0-41" value="成品" style="rounded=1;whiteSpace=wrap;html=1;fillColor=#dae8fc;strokeColor=#6c8ebf;" vertex="1" parent="1">
          <mxGeometry x="1500" y="852.5" width="120" height="60" as="geometry" />
        </mxCell>
        <mxCell id="O_zKsr9jnUD6uPcMvla0-43" value="符合预期" style="text;html=1;strokeColor=none;fillColor=none;align=center;verticalAlign=middle;whiteSpace=wrap;rounded=0;" vertex="1" parent="1">
          <mxGeometry x="1210" y="840" width="60" height="40" as="geometry" />
        </mxCell>
        <mxCell id="O_zKsr9jnUD6uPcMvla0-44" value="未符合预期" style="text;html=1;strokeColor=none;fillColor=none;align=center;verticalAlign=middle;whiteSpace=wrap;rounded=0;" vertex="1" parent="1">
          <mxGeometry x="1160" y="740" width="80" height="40" as="geometry" />
        </mxCell>
      </root>
    </mxGraphModel>
  </diagram>
</mxfile>
